<svg xmlns="http://www.w3.org/2000/svg" viewBox="11 11 25 25">
    <g fill-rule="evenodd" fill="currentColor">
        <path d="M26.74 11.694c.269.434.292.966.064 1.422l-2.675 5.348a.731.731 0 0 1-1.307 0l-2.674-5.348a1.453 1.453 0 0 1 .063-1.423A1.454 1.454 0 0 1 21.455 11h4.04c.511 0 .977.26 1.245.694zm-4.306 8.36l2.783 5.566h-6.97l-1.36-8.161a.725.725 0 0 0-.841-.601.73.73 0 0 0-.601.84l1.32 7.922h-5.034a.731.731 0 0 1-.725-.822l1.257-8.206a3.655 3.655 0 0 1 2.805-3.109l3.492-.805c.028.373.105.744.28 1.092l2.674 5.347c.206.413.533.727.92.937zM31.507 35.1a.728.728 0 0 1-.721.851H27.13v-8.87h3.056l1.32 8.02zm4.439-10.302a.731.731 0 0 1-.726.822h-5.005l1.287-6.436a.731.731 0 0 0-.573-.86.725.725 0 0 0-.86.574l-1.344 6.722h-1.873l-2.702-5.404c.55-.177 1.019-.56 1.287-1.098l2.674-5.347a2.9 2.9 0 0 0 .28-1.093l3.493.806a3.655 3.655 0 0 1 2.804 3.108l1.258 8.206zM22.53 31.254l3.139-3.138v7.835h-9.503a.73.73 0 0 1-.721-.85l1.32-8.02h7.87l-3.138 3.14a.73.73 0 1 0 1.033 1.033z"/>
    </g>
</svg>
