<svg xmlns="http://www.w3.org/2000/svg" viewBox="10 10 26 26">
    <g fill-rule="evenodd" fill="currentColor">
        <path d="M34.612 33.121a1.608 1.608 0 0 1-.14 1.519c-.3.451-.802.721-1.344.721-.497 0-.975-.235-1.278-.63l-.75-.977a7.208 7.208 0 0 0 3.102-1.6l.41.967zm-22.814-.966a7.207 7.207 0 0 0 3.103 1.6l-.751.976c-.303.395-.78.63-1.278.63-.542 0-1.044-.27-1.343-.722a1.607 1.607 0 0 1-.14-1.518l.409-.966zm7.5-19.4c1.215 0 2.204.989 2.204 2.204v1.288a.764.764 0 0 1-.764.763h-4.64l-.039-.002a.763.763 0 0 1-.724-.761v-1.288c0-1.215.988-2.204 2.203-2.204h.124a1.62 1.62 0 0 0-1.563-1.198h-.701a1.62 1.62 0 0 0-1.618 1.618v6.587h-1.527v-6.587a3.149 3.149 0 0 1 3.145-3.145h.701c1.592 0 2.91 1.189 3.116 2.726h.084zm-8.44 13h24.285v.97a5.7 5.7 0 0 1-5.694 5.692H16.551a5.7 5.7 0 0 1-5.694-5.693v-.969zm24.044-3.735a1.1 1.1 0 0 1 0 2.197H11.098a1.1 1.1 0 0 1 0-2.197h23.804z"/>
    </g>
</svg>
