<svg xmlns="http://www.w3.org/2000/svg" viewBox="2 2 12 12">
    <g fill-rule="evenodd" fill="currentColor">
        <path d="M4 2h8v7.703c0 2.205-1.794 4-4 4s-4-1.795-4-4V2zm6.629 7.703V5.086A1.03 1.03 0 0 0 9.6 4.057h-.953A.684.684 0 0 0 8 3.143a.686.686 0 0 0-.647.914H6.4a1.03 1.03 0 0 0-1.029 1.029v4.617c0 1.45 1.18 2.628 2.629 2.628 1.45 0 2.629-1.179 2.629-2.628zM9.6 4.743c.19 0 .343.154.343.343v4.617A1.945 1.945 0 0 1 8 11.646a1.945 1.945 0 0 1-1.943-1.943V5.086c0-.19.154-.343.343-.343h1.257v.914h.686v-.914H9.6z"/>
    </g>
</svg>
