<svg xmlns="http://www.w3.org/2000/svg" viewBox="9 9 28 28">
    <g fill-rule="evenodd" fill="currentColor">
        <path d="M22.977 36.953c7.72 0 13.976-6.257 13.976-13.977C36.953 15.257 30.696 9 22.977 9 15.257 9 9 15.257 9 22.976c0 7.72 6.258 13.977 13.977 13.977zm4.093-21.464a7.488 7.488 0 1 1 0 14.976 7.488 7.488 0 0 1 0-14.976zm-2.635 9.124c0 1.069.924 2.199 2.928 2.199 1.834 0 3.037-.972 3.037-2.405 0-1.008-.68-1.664-1.458-1.956v-.036c.79-.389 1.154-1.057 1.154-1.737 0-.96-.766-2.029-2.612-2.029-1.579 0-2.78.887-2.78 2.223 0 .693.375 1.336 1.14 1.737v.024c-.862.377-1.409 1.033-1.409 1.98zM27.4 19.9c.68 0 .96.486.96.985 0 .485-.377.874-.802.996-.632-.194-1.105-.535-1.105-1.07 0-.485.315-.91.947-.91zm-.121 3.353c.717.195 1.238.607 1.238 1.3 0 .559-.437.984-1.08.984-.693 0-1.13-.534-1.119-1.105.001-.572.353-1.009.96-1.179z"/>
    </g>
</svg>
