<svg xmlns="http://www.w3.org/2000/svg" viewBox="9 9 28 28">
    <g fill-rule="evenodd" fill="currentColor">
        <path d="M29.532 36.923a6.422 6.422 0 0 1-6.449-6.443c0-3.532 2.905-6.455 6.406-6.449 3.613.006 6.499 2.88 6.486 6.45-.012 3.594-2.86 6.442-6.443 6.442zm-5.715-1.617c-1.25 0-2.375.006-3.501-.012-.112 0-.28-.131-.33-.243-1.07-2.556-2.263-5.075-2.73-7.842-.429-2.55-.018-4.913 1.543-7.021.733-.989 1.361-2.021 1.405-3.346h3.694c.006 1.486.89 2.587 1.673 3.75.597.883 1.032 1.847 1.206 2.948-2.276.982-3.837 2.65-4.471 5.068-.628 2.42-.087 4.62 1.511 6.698zM13.8 18.832h3.252c.124.448.249.87.348 1.3a.66.66 0 0 1-.056.435c-1.635 2.91-1.505 5.945-.572 9.011.324 1.064.722 2.109 1.132 3.14.15.368.162.673-.019 1.02-.199.399-.367.815-.516 1.232-.1.274-.255.355-.535.348-.926-.012-1.853.007-2.78-.018-.161-.006-.404-.137-.46-.274-.945-2.22-1.984-4.41-2.406-6.816-.405-2.3-.106-4.465 1.3-6.4.652-.888 1.25-1.809 1.312-2.978zm10.105-3.053H20.23c-.336-1.12-.703-2.202-.983-3.309-.286-1.132.156-2.257 1.057-2.854 1.089-.728 2.227-.747 3.352-.1.977.566 1.425 1.654 1.232 2.836-.037.218-.081.442-.15.653-.149.454-.329.902-.472 1.362-.143.448-.243.92-.36 1.412zM13.836 17.78c-.274-.852-.56-1.592-.734-2.35-.13-.573-.255-1.2-.15-1.76.256-1.344 1.655-2.146 3.036-1.854 1.424.299 2.282 1.518 1.983 2.917-.205.951-.516 1.878-.796 2.805-.03.1-.18.223-.273.223-.858.02-1.71.013-2.569.013-.18.006-.367.006-.497.006zm14.764-.019c-.517 0-1.151.187-1.505-.056-.324-.217-.361-.889-.498-1.368-.193-.671-.448-1.337-.516-2.027-.093-1.014.404-1.791 1.312-2.251.983-.498 1.971-.436 2.86.23.81.603 1.145 1.455.915 2.45-.224.945-.51 1.878-.802 2.805-.031.105-.243.211-.38.224-.46.025-.926.012-1.386.012v-.019zm3.955 5.89c-1.586-.64-3.153-.827-4.69-.436-.41-.951-.802-1.853-1.18-2.76-.038-.094-.013-.23.012-.343.099-.416.217-.827.335-1.268h3.271c.007 1.903 1.73 3.022 2.252 4.807zm-2.687 6.032a1.007 1.007 0 0 0-.976-.995c-.529 0-.964.448-.964.995 0 .529.404.94.939.958a.992.992 0 0 0 1.001-.958zm1.922.777c-.529 0-.97.46-.964.995.006.523.429.946.945.958a.974.974 0 0 0 .989-.964.992.992 0 0 0-.97-.989zm.33-3.333c-.535.006-.99.467-.97.989a.98.98 0 0 0 1.013.945.975.975 0 0 0 .939-.958.98.98 0 0 0-.983-.976z"/>
    </g>
</svg>
