<svg xmlns="http://www.w3.org/2000/svg" viewBox="2 2 12 12">
    <g fill-rule="evenodd" fill="currentColor">
        <path d="M12.145 3.826V4.87h-1.957V3.826h-.782V4.87h-5.61V3.043h-.782V14h.783v-.783h5.609V14h.782v-.783h1.957V14h.782V3.826h-.782zm-2.74 7.304H3.798V6.957h5.609v4.173zm2.74 0h-1.957V9.435h1.957v1.695zm0-2.478h-1.957V6.957h1.957v1.695zM5.1 2c.865 0 1.565.7 1.565 1.565 0 .432-.35.783-.782.783H5.1a.783.783 0 0 1-.782-.783v-.782c0-.433.35-.783.782-.783zm0 6.26c.865 0 1.565.702 1.565 1.566 0 .432-.35.783-.782.783H5.1a.783.783 0 0 1-.782-.783v-.783c0-.432.35-.782.782-.782z"/>
    </g>
</svg>
