<svg xmlns="http://www.w3.org/2000/svg" viewBox="10 9 27 27">
    <g fill-rule="evenodd" fill="currentColor">
        <path d="M34.93 21.428c-.112 0-.228.016-.344.048l-1.214.334-1.283-3.126c-.384-.936-1.521-1.699-2.534-1.699H17.424c-1.013 0-2.15.762-2.534 1.7l-1.282 3.12-1.198-.33a1.298 1.298 0 0 0-.344-.047c-.618 0-1.066.472-1.066 1.122v.664c0 .76.618 1.377 1.377 1.377h.088l-.183.446c-.358.87-.648 2.344-.648 3.285v6.236c0 .759.617 1.376 1.376 1.376h1.655c.76 0 1.377-.617 1.377-1.376v-1.533h14.895v1.533c0 .759.618 1.376 1.377 1.376h1.655c.759 0 1.376-.617 1.376-1.376v-6.236c0-.941-.29-2.415-.648-3.285l-.183-.446h.106c.76 0 1.377-.618 1.377-1.377v-.664c0-.65-.449-1.122-1.066-1.122zm-20.349 2.396l1.95-4.75c.23-.56.914-1.02 1.52-1.02h10.878c.605 0 1.29.46 1.52 1.02l1.949 4.75c.23.56-.077 1.018-.683 1.018h-16.45c-.607 0-.914-.458-.684-1.018zm4.405 6.116c0 .303-.248.551-.55.551h-3.723a.552.552 0 0 1-.55-.55v-1.766c0-.303.248-.55.55-.55h3.722c.303 0 .55.247.55.55v1.765zm13.244.551h-3.722a.552.552 0 0 1-.55-.55v-1.766c0-.303.247-.55.55-.55h3.722c.303 0 .55.247.55.55v1.765c0 .303-.247.551-.55.551zM19.054 16.136c1.369 0 2.561-.76 3.166-1.932h7.066c.277 0 .6-.101.803-.288l.855-.773a.791.791 0 0 0 .26-.584.79.79 0 0 0-.26-.583l-.855-.785-.024-.02-.59-.92a.74.74 0 0 0-.62-.35.74.74 0 0 0-.618.35l-.23.357-.228-.357a.74.74 0 0 0-.62-.35.74.74 0 0 0-.619.35l-.229.357-.229-.357a.74.74 0 0 0-.619-.35c-.247 0-.478.155-.619.374l-.402.65H22.22A3.537 3.537 0 0 0 19.054 9a3.583 3.583 0 0 0-3.59 3.577c0 1.98 1.61 3.56 3.59 3.56zm0-4.862a1.292 1.292 0 1 1 0 2.583 1.292 1.292 0 0 1 0-2.583z"/>
    </g>
</svg>
