<svg xmlns="http://www.w3.org/2000/svg" viewBox="2 2 12 12">
    <g fill-rule="evenodd" fill="currentColor">
        <path d="M12.656 7.508a1.22 1.22 0 0 1 .469 2.346.365.365 0 0 0-.225.338l-.244.975c0 .876-.663 1.6-1.513 1.696a.595.595 0 1 1-.85.535c0-.228.13-.424.318-.523h-5.18a.593.593 0 0 1-.276 1.118.595.595 0 0 1-.255-1.13 1.71 1.71 0 0 1-1.514-1.696l-.244-.975a.365.365 0 0 0-.225-.338 1.221 1.221 0 0 1 .469-2.346c1.076 0 1.951.876 1.951 1.952v.356c.433-.154 1.268-.356 2.684-.356 1.416 0 2.251.202 2.683.356V9.46c0-1.076.876-1.952 1.952-1.952zM6.008 8.889a2.692 2.692 0 0 0-1.647-1.927V5.659a3.66 3.66 0 0 1 7.32 0v1.303a2.691 2.691 0 0 0-1.647 1.927 11.244 11.244 0 0 0-2.013-.161c-.844 0-1.505.069-2.013.161z"/>
    </g>
</svg>
