<svg version="1.1" xmlns="http://www.w3.org/2000/svg" width="32" height="32" viewBox="0 0 32 32">
  <g fill-rule="evenodd" fill="currentColor">
    <path d="M2.286 0h27.429c0.606 0 1.188 0.241 1.616 0.669s0.67 1.010 0.67 1.616v27.429c0 0.606-0.241 1.188-0.669 1.616s-1.010 0.67-1.616 0.67h-27.429c-0.606 0-1.188-0.241-1.616-0.669s-0.669-1.010-0.669-1.616v-27.429c0-0.606 0.241-1.188 0.669-1.616s1.010-0.669 1.616-0.669zM13.49 25.623l16.155-16.16-2.523-2.606-13.632 13.632-6.395-6.395-2.523 2.523 8.919 9.006z"></path>
  </g>
</svg>
