<svg xmlns="http://www.w3.org/2000/svg" width="21" height="21" viewBox="0 0 14 14">
    <g transform="translate(-3.5 -3.5)">
        <path fill="currentColor" fill-rule="evenodd" d="M10.5 3.5c3.866 0 7 3.134 7 7s-3.134 7-7 7-7-3.134-7-7 3.134-7 7-7zm0 1.225c-3.19 0-5.775 2.586-5.775 5.775 0 3.19 2.586 5.775 5.775 5.775 3.19 0 5.775-2.586 5.775-5.775 0-3.19-2.586-5.775-5.775-5.775zm-.485 2.622l.074.064 2.625 2.625c.256.256.256.672 0 .928l-2.625 2.625-.074.064c-.256.19-.621.169-.854-.064-.256-.256-.256-.672 0-.928l2.16-2.161-2.16-2.161c-.256-.256-.256-.672 0-.928.233-.233.598-.254.854-.064z"/>
    </g>
</svg>
