<svg version="1.1" xmlns="http://www.w3.org/2000/svg" width="32" height="32" viewBox="0 0 32 32">
  <g fill-rule="evenodd" fill="currentColor">
    <path d="M17.611 7.963v6.459h6.37v3.154h-6.37v6.459h-3.223v-6.459h-6.37v-3.154h6.37v-6.459h3.223zM15.963 0c4.395 0 8.167 1.566 11.314 4.695 3.147 3.131 4.722 6.898 4.722 11.305s-1.575 8.176-4.722 11.305c-3.147 3.131-6.919 4.695-11.314 4.695-4.398 0-8.158-1.566-11.28-4.695-3.122-3.131-4.683-6.898-4.683-11.305s1.561-8.176 4.686-11.305c3.118-3.131 6.88-4.695 11.275-4.695h0.002zM16 28.846c3.522 0 6.533-1.253 9.029-3.755 2.503-2.507 3.749-5.534 3.749-9.090s-1.248-6.585-3.749-9.090c-2.494-2.503-5.504-3.755-9.029-3.755-3.522 0-6.533 1.253-9.029 3.755-2.503 2.507-3.749 5.534-3.749 9.090s1.248 6.585 3.749 9.090c2.494 2.503 5.504 3.755 9.029 3.755z"></path>
  </g>
</svg>
