<svg xmlns="http://www.w3.org/2000/svg" viewBox="1.5 1.5 13 13">
    <g fill-rule="evenodd" fill="currentColor">
        <path d="M14.246 1.754a.868.868 0 0 0-1.226 0L9.565 5.209 7.51 3.155a1.332 1.332 0 0 0-1.884 0L4.148 4.634l.185.184-2.557 1.638a.599.599 0 0 0-.1.927l6.941 6.942a.598.598 0 0 0 .927-.1l1.638-2.558.184.185 1.479-1.48c.52-.52.52-1.363 0-1.883l-2.054-2.054 3.455-3.455a.868.868 0 0 0 0-1.226zM8.938 12.952l-1.19-1.189 1.168-1.74-1.74 1.167-1-1 .742-1.108-1.108.743L4.675 8.69l.902-1.344-1.344.901-1.185-1.184 2.151-1.378 5.116 5.116-1.377 2.151z"/>
    </g>
</svg>
