<?xml version="1.0" encoding="iso-8859-1"?>
<!-- Generator: Adobe Illustrator 19.0.0, SVG Export Plug-In . SVG Version: 6.00 Build 0)  -->
<svg version="1.1" id="Layer_1" xmlns="http://www.w3.org/2000/svg" xmlns:xlink="http://www.w3.org/1999/xlink" x="0px" y="0px"
	 viewBox="0 0 512 512" style="enable-background:new 0 0 512 512;" xml:space="preserve">
<g>
	<g>
		<path d="M256,0C114.837,0,0,114.843,0,256s114.837,256,256,256s256-114.843,256-256S397.163,0,256,0z M256,478.609
			c-122.75,0-222.609-99.865-222.609-222.609S133.25,33.391,256,33.391S478.609,133.256,478.609,256S378.75,478.609,256,478.609z"/>
	</g>
</g>
<g>
	<g>
		<path d="M256,66.783C151.663,66.783,66.783,151.663,66.783,256S151.663,445.217,256,445.217S445.217,360.337,445.217,256
			S360.337,66.783,256,66.783z M263.805,241.244c23.794,12.576,53.413,28.233,53.413,59.277c0,27.961-18.869,51.551-44.522,58.843
			v7.939c0,9.223-7.479,16.696-16.696,16.696c-9.217,0-16.696-7.473-16.696-16.696v-7.939
			c-25.652-7.293-44.522-30.883-44.522-58.843c0-9.223,7.479-16.696,16.696-16.696s16.696,7.473,16.696,16.696
			c0,15.342,12.478,27.826,27.826,27.826s27.826-12.484,27.826-27.826c0-10.923-18.109-20.5-35.631-29.755
			c-23.794-12.582-53.413-28.239-53.413-59.288c0-27.961,18.869-51.551,44.522-58.843v-7.939c0-9.223,7.479-16.696,16.696-16.696
			c9.217,0,16.696,7.473,16.696,16.696v7.939c25.652,7.293,44.522,30.883,44.522,58.843c0,9.223-7.479,16.696-16.696,16.696
			s-16.696-7.473-16.696-16.696c0-15.342-12.478-27.826-27.826-27.826s-27.826,12.484-27.826,27.826
			C228.174,222.407,246.283,231.984,263.805,241.244z"/>
	</g>
</g>
<g>
</g>
<g>
</g>
<g>
</g>
<g>
</g>
<g>
</g>
<g>
</g>
<g>
</g>
<g>
</g>
<g>
</g>
<g>
</g>
<g>
</g>
<g>
</g>
<g>
</g>
<g>
</g>
<g>
</g>
</svg>
