<?xml version='1.0' encoding='utf-8'?>
<!DOCTYPE svg PUBLIC '-//W3C//DTD SVG 1.1//EN' 'http://www.w3.org/Graphics/SVG/1.1/DTD/svg11.dtd'>
<svg version="1.1" xmlns="http://www.w3.org/2000/svg" viewBox="0 0 512 512" xmlns:xlink="http://www.w3.org/1999/xlink" enable-background="new 0 0 512 512">
  <g>
    <g>
      <g>
        <path d="M256,501C120.9,501,11,391.1,11,256S120.9,11,256,11s245,109.9,245,245S391.1,501,256,501z M256,51.8     C143.4,51.8,51.8,143.4,51.8,256c0,112.6,91.6,204.2,204.2,204.2c112.6,0,204.2-91.6,204.2-204.2     C460.2,143.4,368.6,51.8,256,51.8z"/>
      </g>
      <g>
        <g>
          <path d="m247.7,412.3v-31.1c-15.5-2-28.2-5.4-37.9-10.4-9.7-5-18.1-13.1-25.2-24.2-7.1-11.2-11.2-24.8-12.3-40.9l31.2-5.9c2.4,16.7 6.7,28.9 12.8,36.7 8.7,11 19.2,17.2 31.4,18.5v-98.9c-12.8-2.4-25.8-7.4-39.2-14.8-9.9-5.5-17.5-13.2-22.9-22.9-5.3-9.8-8-20.9-8-33.3 0-22.1 7.8-40 23.5-53.7 10.5-9.2 26-14.8 46.6-16.9v-14.8h18.3v14.8c18.1,1.7 32.4,7 43,15.9 13.6,11.3 21.7,26.7 24.5,46.4l-32.1,4.8c-1.8-12.2-5.7-21.5-11.5-28-5.8-6.5-13.8-10.8-23.9-12.9v89.5c15.6,3.9 26,7 31.1,9.1 9.7,4.3 17.5,9.4 23.6,15.5 6.1,6.1 10.8,13.3 14.1,21.7 3.3,8.4 4.9,17.5 4.9,27.3 0,21.5-6.8,39.5-20.5,53.8-13.7,14.4-31.4,22.1-53.1,23.1v31.4h-18.4zm0-271.7c-12.1,1.8-21.6,6.7-28.6,14.5-7,7.8-10.4,17.1-10.4,27.8 0,10.6 3,19.4 8.9,26.6 5.9,7.1 16,12.8 30.1,17.1v-86zm18.3,214.6c12.1-1.5 22.1-6.7 29.9-15.7 7.9-9 11.8-20.1 11.8-33.3 0-11.3-2.8-20.3-8.4-27.2-5.6-6.8-16.7-13-33.4-18.4v94.6z"/>
        </g>
      </g>
    </g>
  </g>
</svg>
