<svg xmlns="http://www.w3.org/2000/svg" viewBox="8 8 30 30">
    <g fill-rule="evenodd" fill="currentColor">
        <path d="M21.753 13.847a2.924 2.924 0 1 1 0-5.848 2.924 2.924 0 0 1 0 5.848zm4.517 16.566l.97-.008 1.021 2.005c-1.435 3.098-4.566 5.257-8.199 5.257-4.984 0-9.04-4.055-9.04-9.04 0-4.079 2.719-7.532 6.439-8.652v2.74c-2.272 1.003-3.863 3.274-3.863 5.913 0 3.564 2.9 6.464 6.465 6.464 2.944 0 5.43-1.981 6.207-4.679zm8.518 3.47a1.714 1.714 0 0 1-1.528 2.496 1.715 1.715 0 0 1-1.531-.939l-3.44-6.76H21.805a2.627 2.627 0 0 1-2.626-2.627v-8.405a2.575 2.575 0 0 1 2.575-2.575c1.783 0 2.574 1.508 2.574 2.575v3.88h4.316c.712 0 1.288.576 1.288 1.287 0 .28-.108.526-.26.738-.234.324-.597.55-1.028.55h-4.316v1.143h5.015c.647 0 1.238.363 1.53.939l3.916 7.699z"/>
    </g>
</svg>
