<svg xmlns="http://www.w3.org/2000/svg" viewBox="2 2 12 12">
    <g fill-rule="evenodd" fill="currentColor">
        <path d="M5.188 3.406a.351.351 0 1 1 0-.703h.351v-.351a.351.351 0 1 1 .703 0v.351h.352a.351.351 0 1 1 0 .703h-.352v.352a.351.351 0 1 1-.703 0v-.352h-.351zM2.352 5.54a.351.351 0 1 1 0-.703h.375v-.352a.351.351 0 1 1 .703 0v.352h.351a.351.351 0 1 1 0 .703H3.43v.352a.351.351 0 1 1-.703 0v-.352h-.375zm7.054-1.406c2.52 0 4.594 2.05 4.594 4.57 0 1.458-.729 2.84-1.909 3.7a4.54 4.54 0 0 1-2.685.87c-.127 0-.256-.02-.384-.031.02-.104.033-.21.033-.32v-1.076a3.126 3.126 0 0 0 2.011-.45 3.147 3.147 0 0 0 1.504-2.693A3.168 3.168 0 0 0 9.406 5.54a3.16 3.16 0 0 0-2.97 2.11H4.965a4.575 4.575 0 0 1 4.442-3.516zm-.351 7.001V8a.351.351 0 0 0-.352-.352h-1.51a2.458 2.458 0 0 1 2.213-1.406 2.464 2.464 0 0 1 2.461 2.461c0 .859-.438 1.642-1.171 2.095a2.446 2.446 0 0 1-1.641.336zM8 8.352c.194 0 .352.157.352.351v4.242c0 .582-.474 1.055-1.055 1.055H4.484c-.457 0-.844-.295-.99-.703h-.44A1.056 1.056 0 0 1 2 12.242V10.11c0-.581.473-1.054 1.055-1.054h.375v-.352c0-.194.157-.351.351-.351H8zm-5.297 3.89c0 .194.158.352.352.352h.375V9.758h-.375a.352.352 0 0 0-.352.351v2.133z"/>
    </g>
</svg>
