<svg xmlns="http://www.w3.org/2000/svg" viewBox="0.55 1 15 15">
    <g fill-rule="evenodd" fill="currentColor">
        <path d="M13.512 10.48c-1.13 0-2.045-.903-2.045-2.019 0-1.115.916-2.019 2.045-2.019 1.13 0 2.046.904 2.046 2.02 0 1.115-.916 2.019-2.046 2.019zm-5.451 0c-1.13 0-2.046-.903-2.046-2.019 0-1.115.916-2.019 2.046-2.019s2.045.904 2.045 2.02c0 1.115-.916 2.019-2.045 2.019zm-5.458 0c-1.13 0-2.045-.903-2.045-2.019 0-1.115.915-2.019 2.045-2.019s2.045.904 2.045 2.02c0 1.115-.915 2.019-2.045 2.019z"/>
    </g>
</svg>
