<svg xmlns="http://www.w3.org/2000/svg" viewBox="11 11 24 24">
    <g fill-rule="evenodd" fill="currentColor">
        <path d="M11 12.91c0-1 .663-1.8 1.436-1.8h9.721v23.607h-9.72c-.774 0-1.437-.733-1.437-1.734V12.91zm22.536-1.8c.828 0 1.436.8 1.436 1.8v20.073c0 .934-.608 1.734-1.436 1.734h-9.722V11.11h9.722zm-20.603 9.152a.8.8 0 0 0 0 1.16.801.801 0 0 0 1.16 0l1.547-1.547v8.838a.85.85 0 0 0 .828.828.85.85 0 0 0 .829-.828v-8.782l1.546 1.546a.8.8 0 0 0 1.16 0c.166-.165.221-.386.221-.607 0-.221-.055-.442-.22-.608l-2.928-2.927c-.166-.11-.387-.221-.608-.221-.22 0-.442.055-.607.22l-2.928 2.928zm20.16 6.02c.111-.165.222-.386.222-.552 0-.22-.055-.442-.221-.607a.8.8 0 0 0-1.16 0l-1.547 1.546v-8.782a.85.85 0 0 0-.828-.829.85.85 0 0 0-.829.829v8.782l-1.546-1.546a.8.8 0 0 0-1.16 0 .8.8 0 0 0 0 1.16l2.927 2.927c.166.11.387.221.608.221.22 0 .442-.055.607-.22l2.928-2.928z"/>
    </g>
</svg>
