<svg version="1.1" xmlns="http://www.w3.org/2000/svg" width="32" height="32" viewBox="0 0 32 32">
  <g fill-rule="evenodd" fill="currentColor">
    <path d="M29.145 27.604h-26.289c-0.716 0-1.342-0.236-1.871-0.706l9.068-9.068 0.625 0.453c0.679 0.5 1.231 0.891 1.652 1.169 0.423 0.281 0.985 0.566 1.689 0.859 0.702 0.29 1.356 0.436 1.964 0.436h0.034c0.608 0 1.263-0.145 1.964-0.436 0.702-0.293 1.265-0.578 1.689-0.859 0.423-0.278 0.972-0.67 1.649-1.169l0.63-0.45 9.066 9.066c-0.529 0.468-1.154 0.706-1.871 0.706zM1.804 12.121c2.528 1.721 4.588 3.136 6.186 4.251l-7.99 7.99v-13.792c0.524 0.583 1.125 1.1 1.804 1.551zM30.215 12.121c0.677-0.463 1.273-0.98 1.785-1.551v13.792l-7.988-7.988c2.058-1.432 4.125-2.851 6.203-4.254zM29.142 2.462c0.775 0 1.445 0.281 2.009 0.837 0.566 0.561 0.849 1.236 0.849 2.018 0 0.943-0.293 1.841-0.874 2.698-0.586 0.859-1.324 1.603-2.178 2.196-2.876 1.997-5.751 3.995-8.625 5.994l-0.492 0.354c-0.606 0.457-1.239 0.877-1.895 1.258-0.323 0.197-0.667 0.36-1.024 0.485-0.32 0.106-0.618 0.16-0.894 0.16h-0.034c-0.273 0-0.571-0.054-0.894-0.16-0.358-0.124-0.702-0.286-1.026-0.482-0.315-0.184-0.625-0.378-0.928-0.581-0.256-0.172-0.578-0.399-0.965-0.679l-0.492-0.354-0.266-0.19-1.802-1.26-2.878-1.999c-2.036-1.41-3.257-2.26-3.66-2.545-0.806-0.566-1.513-1.262-2.090-2.060-0.655-0.876-0.982-1.689-0.982-2.437 0-0.93 0.246-1.703 0.741-2.324 0.492-0.618 1.199-0.928 2.117-0.928h26.284z"></path>
  </g>
</svg>
