<svg xmlns="http://www.w3.org/2000/svg" viewBox="0 0 21 21">
    <g fill="none" fill-rule="evenodd">
        <circle cx="10.5" cy="10.5" r="10.5" fill="currentColor"/>
        <path fill="#FFF" d="M5.66 11.744c.091.586.276.997.554 1.233.279.236.678.354 1.2.354.562 0 1.007-.22 1.335-.66.327-.439.494-1.049.5-1.83H6.451v-.772H9.25c0-.771-.168-1.381-.505-1.83-.337-.45-.808-.675-1.414-.675-.488 0-.868.127-1.14.381-.272.254-.448.664-.53 1.23h-.942c.075-.745.34-1.328.796-1.75.455-.421 1.06-.632 1.816-.632.573 0 1.077.136 1.511.408.435.271.769.659 1.001 1.162.233.503.35 1.081.35 1.736v.708c0 .654-.116 1.232-.347 1.733-.231.501-.558.886-.98 1.155a2.645 2.645 0 0 1-1.452.403c-.775 0-1.396-.205-1.863-.613-.467-.409-.744-.989-.832-1.74h.942zm6.764-.527V14h-.937V6.89h2.622c.778 0 1.387.2 1.828.596.441.397.662.923.662 1.577 0 .69-.216 1.222-.647 1.595-.431.372-1.05.559-1.853.559h-1.675zm0-.767h1.685c.5 0 .885-.118 1.152-.354.267-.236.4-.577.4-1.023 0-.423-.133-.761-.4-1.015-.267-.254-.633-.386-1.099-.396h-1.738v2.788z"/>
    </g>
</svg>
