<svg version="1.1" xmlns="http://www.w3.org/2000/svg" width="32" height="32" viewBox="0 0 32 32">
  <g fill-rule="evenodd" fill="currentColor">
    <path d="M30.163 15.333c-0.050-0.12-0.134-0.222-0.242-0.294s-0.234-0.111-0.364-0.111h-7.195v-14.272c0-0.086-0.017-0.171-0.050-0.251s-0.081-0.152-0.142-0.213c-0.061-0.061-0.133-0.109-0.213-0.142s-0.165-0.050-0.251-0.050h-10.507c-0.174 0-0.341 0.069-0.464 0.192s-0.192 0.29-0.192 0.464v14.272h-7.221c-0.129 0.001-0.255 0.040-0.362 0.113s-0.191 0.174-0.24 0.294c-0.049 0.119-0.063 0.251-0.038 0.378s0.086 0.244 0.177 0.336l13.096 13.141c0.061 0.062 0.134 0.111 0.214 0.144s0.166 0.051 0.253 0.051 0.173-0.017 0.253-0.051c0.080-0.034 0.153-0.082 0.214-0.144l13.133-13.141c0.091-0.092 0.154-0.209 0.179-0.336s0.012-0.259-0.038-0.379z"></path>
  </g>
</svg>
