<svg xmlns="http://www.w3.org/2000/svg" viewBox="0 0 24 24">
    <g fill-rule="evenodd" fill="currentColor">
        <path d="M8.012 13.451c-3.048 0-5.52-1.121-5.52-2.504v-.543c0-1.382 2.472-2.503 5.52-2.503.534 0 1.05.034 1.539.098v5.353c-.489.065-1.005.1-1.539.1zm0 2.795c-3.048 0-5.52-1.12-5.52-2.503V13.2c0-.176.04-.348.116-.513.522 1.137 2.743 1.99 5.404 1.99.534 0 1.05-.034 1.539-.098v1.569c-.489.064-1.005.098-1.539.098zm1.539 1.25v.543c0 .304.07.597.206.875-.549.083-1.135.128-1.745.128-3.048 0-5.52-1.121-5.52-2.504v-.543c0-.176.04-.347.116-.513.522 1.137 2.743 1.991 5.404 1.991.534 0 1.05-.035 1.539-.1v.123zM15.97 3.66c3.05 0 5.521 1.121 5.521 2.504v.543c0 1.383-2.471 2.504-5.52 2.504-3.049 0-5.52-1.121-5.52-2.504v-.543c0-1.383 2.471-2.504 5.52-2.504zm0 6.777c2.662 0 4.883-.854 5.405-1.99.076.165.116.336.116.512v.543c0 1.383-2.471 2.504-5.52 2.504-3.049 0-5.52-1.121-5.52-2.504V8.96c0-.176.04-.347.116-.513.521 1.137 2.743 1.991 5.404 1.991zm0 2.796c2.662 0 4.883-.855 5.405-1.991.076.165.116.337.116.512v.543c0 1.383-2.471 2.504-5.52 2.504-3.049 0-5.52-1.12-5.52-2.504v-.543c0-.175.04-.347.116-.512.521 1.136 2.743 1.99 5.404 1.99zm0 2.946c2.662 0 4.883-.854 5.405-1.991.076.165.116.337.116.513v.543c0 1.382-2.471 2.503-5.52 2.503-3.049 0-5.52-1.12-5.52-2.503V14.7c0-.176.04-.348.116-.513.521 1.137 2.743 1.99 5.404 1.99zm0 2.795c2.662 0 4.883-.854 5.405-1.991.076.166.116.337.116.513v.543c0 1.383-2.471 2.504-5.52 2.504-3.049 0-5.52-1.121-5.52-2.504v-.543c0-.176.04-.347.116-.513.521 1.137 2.743 1.991 5.404 1.991z"/>
    </g>
</svg>
