<svg xmlns="http://www.w3.org/2000/svg" viewBox="10 9 27 27">
    <g fill-rule="evenodd" fill="currentColor">
        <path d="M34.93 21.442c-.112 0-.228.016-.344.048l-1.214.335-1.283-3.126C31.705 17.762 30.568 17 29.555 17H17.424c-1.013 0-2.15.762-2.534 1.699l-1.282 3.121-1.198-.33a1.298 1.298 0 0 0-.344-.048c-.618 0-1.066.472-1.066 1.123v.664c0 .759.618 1.377 1.377 1.377h.088l-.183.446c-.358.87-.648 2.344-.648 3.284v6.236c0 .76.617 1.377 1.376 1.377h1.655c.76 0 1.377-.618 1.377-1.377V33.04h14.895v1.532c0 .76.618 1.377 1.377 1.377h1.655c.759 0 1.376-.618 1.376-1.377v-6.236c0-.94-.29-2.414-.648-3.284l-.183-.446h.106c.76 0 1.377-.618 1.377-1.377v-.664c0-.65-.449-1.123-1.066-1.123zm-20.349 2.396l1.95-4.75c.23-.56.914-1.019 1.52-1.019h10.878c.605 0 1.29.459 1.52 1.02l1.949 4.75c.23.56-.077 1.018-.683 1.018h-16.45c-.607 0-.914-.458-.684-1.019zm4.405 6.117c0 .303-.248.55-.55.55h-3.723a.552.552 0 0 1-.55-.55V28.19c0-.303.248-.551.55-.551h3.722c.303 0 .55.248.55.55v1.766zm13.244.55h-3.722a.552.552 0 0 1-.55-.55V28.19c0-.303.247-.551.55-.551h3.722c.303 0 .55.248.55.55v1.766c0 .303-.247.55-.55.55zm-13.573-18.21H16.4v2.182H15V9h3.885v1.02H16.4v1.26h2.257v1.015zm2.7.248h-.758v1.934h-1.4V9h2.285c.689 0 1.227.144 1.616.433.388.288.582.695.582 1.222 0 .381-.082.697-.245.948-.164.25-.42.454-.768.61l1.212 2.207v.057h-1.5l-1.024-1.934zm-.758-1.02h.885c.266 0 .466-.065.6-.197.135-.131.202-.315.202-.55 0-.236-.068-.421-.203-.555-.136-.135-.335-.202-.599-.202H20.6v1.505zm7.262.633h-2.202v1.305h2.6v1.016h-4V9h4.009v1.02h-2.609v1.154h2.202v.982zm4.302 0h-2.201v1.305h2.6v1.016h-4V9h4.008v1.02h-2.608v1.154h2.201v.982z"/>
    </g>
</svg>
