<svg xmlns="http://www.w3.org/2000/svg" viewBox="10 10 27 27">
    <g fill-rule="evenodd" fill="currentColor">
        <path d="M10.632 36.87c-.459-.21-.589-.57-.582-1.059.018-1.554-.007-3.115.018-4.67.031-1.863 1.245-3.764 2.91-4.6a6.451 6.451 0 0 0 1.753 1.548c.186.111.372.235.576.31.26.092.409.26.52.501.44.91.898 1.814 1.356 2.719.23.452.638.656 1.022.458.198-.105.384-.304.49-.508.489-.935.953-1.889 1.43-2.83.05-.093.13-.198.217-.235a6.464 6.464 0 0 0 2.495-1.908c.019-.018.038-.03.075-.055 1.604.928 2.594 2.29 2.83 4.136.099.768.05 1.555.055 2.329.007.935-.012 1.87.013 2.805.012.49-.13.848-.582 1.059H10.632zm26.3-20.052c-.143.576-.23 1.164-.427 1.722-.979 2.73-3.964 4.452-6.825 3.975-2.644-.446-4.613-2.31-5.208-4.929-.557-2.44.582-5.19 2.713-6.546 2.724-1.74 6.124-1.257 8.236 1.177.823.947 1.307 2.056 1.468 3.307.012.087.037.167.05.254-.007.34-.007.693-.007 1.04zm-6.917 1.071c.396-.018.768-.018 1.127-.061 1.14-.137 2.019-1.152 2.019-2.317.006-1.151-.88-2.204-2.013-2.316-.656-.062-1.325-.05-1.988-.037-.415.006-.712.36-.718.793a593.02 593.02 0 0 0 0 4.694c0 .452.347.793.774.793.44.006.78-.335.792-.805.013-.242.007-.483.007-.744zm-7.351 2.793c-.062 1.072.13 2.155-.173 3.208-.496 1.734-1.617 2.892-3.357 3.357-1.777.476-3.344 0-4.62-1.32-.885-.91-1.306-2.03-1.306-3.3V20.62c.148.143.266.26.39.366 1.226 1.04 2.6 1.238 4.093.681a.601.601 0 0 1 .496 0 3.903 3.903 0 0 0 4.266-.848c.056-.056.093-.124.137-.186a.223.223 0 0 0 .074.05zm-9.35-3.4c.142-1.801 1.894-4.05 4.656-4.03 2.719.018 4.446 2.26 4.576 4.018-3.077-1.17-6.155-1.17-9.233.013zm8.625 1.474c-.489 1.109-1.449 1.734-2.508 1.623-.328-.037-.656-.173-.953-.328-.372-.192-.706-.223-1.06-.007-1.362.843-2.842.137-3.51-1.319 2.681-.99 5.344-1.034 8.031.031zm8.088-2.464V14.75c.328 0 .656-.037.972.012.384.062.62.434.582.818a.785.785 0 0 1-.743.712c-.26.012-.52 0-.81 0z"/>
    </g>
</svg>
