<svg xmlns="http://www.w3.org/2000/svg" viewBox="10 10 26 26">
    <g fill-rule="evenodd" fill="currentColor">
        <path d="M28.932 14.822v7.2l-7.79 1.84 1.549 6.618c.218.93.002 1.894-.592 2.642a3.095 3.095 0 0 1-2.438 1.179 3.108 3.108 0 0 1-3.016-2.35l-1.857-7.36a6.457 6.457 0 0 1-1.861-.807 6.262 6.262 0 0 1-2.794-4.05 6.558 6.558 0 0 1 0-2.625 6.264 6.264 0 0 1 2.794-4.05 6.512 6.512 0 0 1 4.976-.844l11.029 2.607zm5.855-1.464c.05.067 1.213 1.682 1.213 5.063 0 3.382-1.163 4.997-1.213 5.064l-.362.49-3.97-1.748v-7.611l3.97-1.748.362.49z"/>
    </g>
</svg>
