<svg xmlns="http://www.w3.org/2000/svg" viewBox="10.5 10 25 25">
    <g fill-rule="evenodd" fill="currentColor">
        <path d="M24.93 10c5.552 0 10.068 4.516 10.068 10.067v6.226h-.735a3.914 3.914 0 0 1-3.452-2.074v-.35a19.75 19.75 0 0 0-3.166-10.737l-.217-.336-.434-.672h-6.172V10h4.109zM13.26 31.587h16.082v3.49H13.26v-3.49zM26.41 13.929a18.284 18.284 0 0 1 2.93 9.94v6.248H13.26V23.87c0-1.16.111-2.325.332-3.468l-2.59-4.845 4.58-1.963h10.612l.217.336zm-2.7 5.878a2.39 2.39 0 0 0-2.388-2.387h-.044a2.39 2.39 0 0 0-2.388 2.387v5.781a2.39 2.39 0 0 0 2.388 2.388h.044a2.39 2.39 0 0 0 2.387-2.388v-5.78zm-2.388-.918c.506 0 .918.412.918.918v5.781a.919.919 0 0 1-.918.918h-.044a.919.919 0 0 1-.918-.918v-5.78c0-.507.412-.919.918-.919h.044z"/>
    </g>
</svg>
