<svg xmlns="http://www.w3.org/2000/svg" width="13" height="19" viewBox="0 0 13 19">
    <path fill="currentColor" fill-rule="evenodd" d="M10.2 17.673H2.467a.64.64 0 0 1 .002.051v.613c0 .366-.312.663-.698.663-.385 0-.698-.297-.698-.663v-.613c0-.019.001-.037.003-.055C.473 17.619 0 17.137 0 16.55V5.92c0-.62.529-1.122 1.18-1.122h10.306c.652 0 1.18.502 1.18 1.122v10.63c0 .587-.472 1.068-1.075 1.119a.64.64 0 0 1 .002.055v.613c0 .366-.312.663-.698.663-.385 0-.697-.297-.697-.663v-.613c0-.017 0-.034.002-.051zM4.868 3.381c.03.337-.232.634-.587.663-.354.029-.666-.221-.697-.558C3.384 1.276 4.354 0 6.371 0S9.36 1.276 9.16 3.486c-.031.337-.343.587-.697.558-.355-.03-.617-.326-.587-.663.14-1.552-.32-2.156-1.504-2.156s-1.644.604-1.503 2.156zM3.167 6.333a.452.452 0 0 0-.453.453v9.047a.452.452 0 0 0 .905 0V6.786a.452.452 0 0 0-.452-.453zm6.333 0a.452.452 0 0 0-.452.453v9.047a.452.452 0 1 0 .904 0V6.786a.452.452 0 0 0-.452-.453z" />
</svg>
