<svg xmlns="http://www.w3.org/2000/svg" viewBox="10 10 26 26">
    <g fill-rule="evenodd" fill="currentColor">
        <path d="M13 33.51a2.346 2.346 0 0 0 2.344 2.344h15.625a2.346 2.346 0 0 0 2.343-2.344V17.813H13V33.51zm10.156-12.52c3.032 0 5.469 2.553 5.469 5.468a5.475 5.475 0 0 1-5.469 5.47 5.475 5.475 0 0 1-5.468-5.47 5.475 5.475 0 0 1 5.468-5.468zM30.97 10a2.346 2.346 0 0 1 2.343 2.344v3.906H13v-3.906A2.346 2.346 0 0 1 15.344 10h15.625zm-4.435 18.383c.327-.57.529-1.222.529-1.925 0-.703-.202-1.354-.529-1.925a2.335 2.335 0 0 0-1.034 1.925c0 .787.404 1.495 1.034 1.925zm-3.378 1.982c.878 0 1.68-.302 2.332-.792a3.915 3.915 0 0 1-1.55-3.115c0-1.243.593-2.389 1.55-3.115a3.868 3.868 0 0 0-2.332-.79 3.91 3.91 0 0 0-3.906 3.905 3.91 3.91 0 0 0 3.906 3.907zm-.001-15.677a.781.781 0 1 0 0-1.563.781.781 0 0 0 0 1.563zm3.125 0a.781.781 0 1 0 0-1.563.781.781 0 0 0 0 1.563zm3.125 0a.781.781 0 1 0 0-1.563.781.781 0 0 0 0 1.563zm-9.374 0a.78.78 0 1 0 0-1.563h-3.125a.78.78 0 1 0 0 1.563h3.125z"/>
    </g>
</svg>
