<svg xmlns="http://www.w3.org/2000/svg" viewBox="2.2 1.9 12.5 12.5">
    <g fill-rule="evenodd" fill="currentColor">
        <path d="M11.009 2.102c1.016-.14 1.944.451 2.164 1.378.033.144.043.295.043.443.005.538.003 1.076.003 1.614v.153H14v4.856h-.773c-.003.054-.008.1-.008.144 0 .543-.01 1.083.002 1.626.023.994-.791 1.772-1.726 1.826-.156.01-.315.003-.489.003.003-4.014.003-8.027.003-12.043zM3 13.412V2.825h7.591v.837H4.23c-.288.003-.385.1-.385.384v8.157c0 .274.103.377.38.377h6.369v.835c-2.528-.003-5.056-.003-7.594-.003zm1.447-3.39c0-.554-.008-1.11.003-1.663.005-.284.117-.54.294-.763a.436.436 0 0 0 .097-.346c-.053-.384.01-.753.144-1.117.051-.138.043-.3.061-.45.003-.013.003-.031-.002-.039-.149-.148-.082-.325-.075-.494a.967.967 0 0 0-.015-.228c-.04-.223.085-.4.307-.405.364-.007.725-.007 1.089 0 .218.006.338.182.307.397-.018.128 0 .262-.005.392-.005.09-.036.18-.038.27-.003.17-.013.342.015.509.039.22.126.433.161.653a1.83 1.83 0 0 1 0 .458c-.015.157.01.29.11.418.2.253.29.55.293.868.002 1.037.002 2.075 0 3.11 0 .383-.272.65-.654.652-.478.003-.955.003-1.434 0-.4 0-.663-.263-.666-.666-.002-.52 0-1.04 0-1.562 0 .005.005.005.008.005zm3.15.138c0-.474-.013-.948.005-1.42a1.36 1.36 0 0 1 .477-.988.828.828 0 0 0 .297-.735c-.013-.166.03-.338-.1-.481-.028-.031-.028-.098-.028-.146a22.581 22.581 0 0 1 0-.59c.002-.215.135-.355.348-.358.338-.005.674-.005 1.012 0 .202.003.335.14.34.34.005.205.003.41 0 .615 0 .046 0 .105-.025.136-.182.213-.092.461-.1.697a.542.542 0 0 0 .202.425c.292.264.505.579.566.976.018.112.026.227.026.343a389.3 389.3 0 0 1 0 2.446c0 .512-.323.832-.83.835-.456 0-.912.002-1.37 0-.505-.003-.83-.328-.83-.835v-1.255c0-.005.005-.005.01-.005zm6.091-.016h-.459V6.103h.459v4.041z"/>
    </g>
</svg>
