<svg xmlns="http://www.w3.org/2000/svg" viewBox="1 0.5 14 14">
    <g fill-rule="evenodd" fill="currentColor">
        <path d="M2.532 5.154l6.535 6.534c.04.248.087.495.145.742.045.193.118.38.17.573.013.049.012.13-.017.154a.206.206 0 0 1-.171.028c-.85-.304-1.737-.392-2.628-.446-.451-.028-.905-.005-1.358-.005-1.206-.024-2.41.018-3.587.321-.148.038-.289.102-.436.14a.202.202 0 0 1-.156-.032c-.027-.021-.037-.095-.023-.134.356-.97.434-1.987.48-3.004.054-1.152.047-2.307-.122-3.45-.078-.53-.234-1.049-.35-1.574-.011-.053-.002-.13.03-.168.024-.028.107-.032.152-.015.436.164.883.269 1.336.336zm4.346.103c.79-.05 1.572-.162 2.326-.439.045-.016.123-.007.153.022.032.032.047.11.032.154-.26.763-.385 1.543-.444 2.33L6.878 5.257zm6.001 6L9.664 8.043c0-.098.002-.197.004-.295.02-1.03.133-2.055.434-3.049.027-.09.07-.175.089-.265.01-.05.003-.122-.028-.154-.031-.033-.106-.05-.154-.038-.52.12-1.034.28-1.56.366-.605.098-1.22.132-1.849.196.062-.42.14-.795.168-1.172.036-.492.033-.988.05-1.481.002-.046.019-.114.05-.131.042-.023.12-.027.158-.002C8.74 3.105 10.67 3.57 12.628 3.952c.724.141 1.456.233 2.199.164.053-.005.123.033.16.074.023.023.013.103-.011.138-.616.879-.958 1.88-1.279 2.887-.38 1.193-.666 2.41-.796 3.658a4.56 4.56 0 0 0-.022.385zM1.646 2.855l.708-.708L12.96 12.753l-.707.707L1.646 2.854z"/>
    </g>
</svg>
