<svg xmlns="http://www.w3.org/2000/svg" width="18" height="18" viewBox="0 0 18 18">
    <g fill="currentColor" fill-rule="evenodd" transform="translate(-1 -1)">
        <path fill="currentColor" d="M17.473 9.63c-.961-2.836-3.556-4.253-7.786-4.253H7.694V2.675a.713.713 0 0 0-.169-.474.51.51 0 0 0-.4-.201.51.51 0 0 0-.4.2L2.169 7.604A.714.714 0 0 0 2 8.078c0 .183.056.341.169.475l4.556 5.402a.51.51 0 0 0 .4.2.51.51 0 0 0 .4-.2.713.713 0 0 0 .17-.475v-2.7h1.992c.582 0 1.102.02 1.562.062.46.042.916.118 1.37.227.454.11.848.259 1.184.449.335.19.648.434.938.733.291.3.528.654.712 1.066.184.411.328.898.432 1.461.103.563.155 1.2.155 1.91 0 .387-.014.82-.044 1.298 0 .042-.007.125-.022.248a2.566 2.566 0 0 0-.023.28c0 .105.026.193.076.263s.12.105.21.105c.094 0 .177-.06.248-.179.042-.063.08-.14.116-.232a20.455 20.455 0 0 0 .214-.57c.753-2.004 1.13-3.59 1.13-4.758 0-1.4-.158-2.571-.472-3.514z"/>
        <rect width="2" height="24" x="9" y="-2" fill="currentColor" rx="1" transform="rotate(-45 10 10)"/>
    </g>
</svg>
