<svg version="1.1" xmlns="http://www.w3.org/2000/svg" width="32" height="32" viewBox="0 0 32 32">
  <g fill-rule="evenodd" fill="currentColor">
    <path d="M11.417 5.671c-0.768 0-1.428-0.276-1.977-0.825-0.268-0.261-0.479-0.574-0.62-0.92s-0.211-0.717-0.204-1.091c0-0.793 0.276-1.462 0.825-2.011s1.206-0.825 1.977-0.825c0.77 0 1.428 0.276 1.979 0.825 0.549 0.549 0.825 1.218 0.825 2.011 0 0.79-0.276 1.462-0.825 2.011-0.256 0.265-0.564 0.476-0.904 0.617s-0.706 0.212-1.075 0.207zM11.417 8.441c0.77 0 1.428 0.273 1.979 0.822 0.549 0.551 0.825 1.221 0.825 2.011 0 0.793-0.276 1.462-0.825 2.011-0.256 0.265-0.564 0.476-0.904 0.617s-0.706 0.212-1.075 0.207c-0.768 0-1.428-0.273-1.977-0.825-0.268-0.261-0.479-0.574-0.62-0.92s-0.211-0.717-0.204-1.091c0-0.79 0.276-1.46 0.825-2.011 0.549-0.549 1.206-0.822 1.977-0.822zM11.417 16.879c0.77 0 1.428 0.276 1.979 0.825 0.549 0.549 0.825 1.218 0.825 2.011 0 0.79-0.276 1.462-0.825 2.011-0.256 0.265-0.564 0.476-0.904 0.617s-0.706 0.212-1.075 0.207c-0.768 0-1.428-0.276-1.977-0.825-0.268-0.261-0.479-0.574-0.62-0.92s-0.211-0.717-0.204-1.091c0-0.793 0.276-1.462 0.825-2.011s1.206-0.825 1.977-0.825zM11.417 25.319c0.77 0 1.428 0.273 1.979 0.825 0.549 0.549 0.825 1.218 0.825 2.009 0 0.793-0.276 1.462-0.825 2.011-0.256 0.265-0.564 0.476-0.904 0.617s-0.706 0.212-1.075 0.207c-0.768 0-1.428-0.273-1.977-0.825-0.267-0.261-0.478-0.574-0.62-0.919s-0.211-0.716-0.205-1.089c0-0.793 0.276-1.462 0.825-2.011 0.549-0.551 1.206-0.825 1.977-0.825zM19.857 5.671c-0.77 0-1.428-0.276-1.979-0.825-0.267-0.261-0.478-0.575-0.619-0.92s-0.21-0.717-0.203-1.091c0-0.793 0.273-1.462 0.822-2.011 0.551-0.549 1.209-0.825 1.979-0.825 0.768 0 1.428 0.276 1.979 0.825 0.549 0.549 0.822 1.218 0.822 2.011 0 0.79-0.273 1.462-0.822 2.011-0.256 0.265-0.564 0.476-0.904 0.617s-0.706 0.212-1.075 0.207zM19.857 8.441c0.768 0 1.428 0.273 1.979 0.822 0.549 0.551 0.822 1.221 0.822 2.011 0 0.793-0.273 1.462-0.822 2.011-0.256 0.265-0.564 0.476-0.904 0.617s-0.706 0.212-1.075 0.207c-0.77 0-1.428-0.273-1.979-0.825-0.267-0.261-0.478-0.575-0.619-0.92s-0.21-0.717-0.203-1.091c0-0.79 0.273-1.46 0.822-2.011 0.551-0.549 1.209-0.822 1.979-0.822zM19.857 16.879c0.768 0 1.428 0.276 1.979 0.825 0.549 0.549 0.822 1.218 0.822 2.011 0 0.79-0.273 1.462-0.822 2.011-0.256 0.265-0.564 0.476-0.904 0.617s-0.706 0.212-1.075 0.207c-0.77 0-1.428-0.276-1.979-0.825-0.267-0.261-0.478-0.575-0.619-0.92s-0.21-0.717-0.203-1.091c0-0.793 0.273-1.462 0.822-2.011 0.551-0.549 1.209-0.825 1.979-0.825zM19.857 25.319c0.768 0 1.428 0.273 1.979 0.825 0.549 0.549 0.822 1.218 0.822 2.009 0 0.793-0.273 1.462-0.822 2.011-0.256 0.265-0.564 0.476-0.904 0.617s-0.706 0.212-1.075 0.207c-0.77 0-1.428-0.273-1.979-0.825-0.267-0.261-0.477-0.574-0.619-0.919s-0.211-0.716-0.203-1.089c0-0.793 0.273-1.462 0.822-2.011 0.551-0.551 1.209-0.825 1.979-0.825z"></path>
  </g>
</svg>
