<svg version="1.1" xmlns="http://www.w3.org/2000/svg" width="32" height="32" viewBox="0 0 32 32">
  <g fill-rule="evenodd" fill="currentColor">
    <path d="M26.421 17.284l-1.778 1.776c-0.258 0.258-0.402 0.608-0.402 0.972s0.145 0.714 0.403 0.972c0.258 0.258 0.608 0.402 0.972 0.402s0.714-0.145 0.972-0.403l4.121-4.121c0.131-0.131 0.234-0.287 0.302-0.459 0.032-0.079 0.055-0.16 0.071-0.244l0.007-0.036 0.014-0.098c0.013-0.124 0.008-0.249-0.014-0.372l-0.005-0.036c-0.019-0.087-0.045-0.173-0.078-0.256-0.037-0.082-0.079-0.161-0.128-0.236-0.018-0.028-0.039-0.055-0.080-0.108-0.028-0.035-0.058-0.068-0.089-0.1l-4.123-4.121c-0.125-0.137-0.277-0.248-0.446-0.325s-0.352-0.119-0.538-0.123c-0.186-0.004-0.37 0.029-0.543 0.098s-0.329 0.172-0.461 0.304c-0.131 0.131-0.235 0.288-0.304 0.461s-0.103 0.357-0.098 0.543c0.004 0.186 0.046 0.369 0.124 0.538s0.188 0.321 0.325 0.446l1.776 1.778h-14.027c-0.356 0.013-0.693 0.163-0.94 0.419s-0.385 0.598-0.385 0.954c0 0.356 0.138 0.698 0.385 0.954s0.584 0.406 0.94 0.419h14.027zM12.124 4.672c-2.979 0.004-5.835 1.189-7.942 3.296s-3.291 4.964-3.294 7.943c0.003 2.979 1.188 5.836 3.295 7.942s4.963 3.292 7.942 3.295c1.84 0.001 3.652-0.451 5.276-1.314s3.012-2.113 4.041-3.639c0.109-0.149 0.187-0.319 0.23-0.499s0.048-0.367 0.016-0.549-0.1-0.356-0.2-0.511c-0.1-0.155-0.231-0.289-0.384-0.392s-0.326-0.175-0.507-0.21-0.368-0.034-0.549 0.005c-0.181 0.039-0.352 0.113-0.503 0.22s-0.279 0.242-0.377 0.399c-1.017 1.508-2.491 2.65-4.206 3.257s-3.579 0.647-5.318 0.114c-1.739-0.533-3.261-1.61-4.342-3.073s-1.663-3.235-1.661-5.053c0.002-1.819 0.588-3.589 1.672-5.050s2.609-2.534 4.349-3.063c1.74-0.529 3.605-0.484 5.318 0.126s3.185 1.756 4.199 3.266c0.207 0.294 0.52 0.496 0.874 0.562s0.719-0.010 1.017-0.21c0.299-0.201 0.507-0.51 0.579-0.862s0.005-0.719-0.19-1.021c-1.027-1.533-2.416-2.789-4.045-3.657s-3.445-1.322-5.291-1.321z"></path>
  </g>
</svg>
