<svg version="1.1" xmlns="http://www.w3.org/2000/svg" width="32" height="32" viewBox="0 0 32 32">
  <g fill-rule="evenodd" fill="currentColor">
    <path d="M31.936 25.209c0.036 0.247 0.012 0.5-0.071 0.735s-0.222 0.448-0.404 0.618l-4.497 4.463c-0.204 0.226-0.468 0.418-0.795 0.576-0.304 0.151-0.629 0.254-0.965 0.305-0.213 0.026-0.428 0.038-0.642 0.034-0.428 0-1.12-0.074-2.080-0.222s-2.129-0.507-3.518-1.083c-1.386-0.574-2.959-1.438-4.719-2.585-1.758-1.152-3.631-2.732-5.612-4.738-1.426-1.38-2.739-2.872-3.926-4.463-1.036-1.42-1.871-2.735-2.503-3.941-0.565-1.052-1.040-2.149-1.42-3.281-0.277-0.828-0.491-1.675-0.64-2.535-0.102-0.552-0.148-1.113-0.138-1.674 0.025-0.409 0.034-0.633 0.034-0.679 0.044-0.315 0.148-0.635 0.305-0.962 0.138-0.3 0.332-0.57 0.574-0.795l4.5-4.5c0.139-0.148 0.306-0.267 0.493-0.348s0.387-0.124 0.59-0.124c0.293 0 0.551 0.084 0.778 0.254 0.224 0.17 0.418 0.377 0.574 0.625l3.618 6.868c0.203 0.358 0.265 0.78 0.172 1.182-0.080 0.41-0.281 0.787-0.576 1.083l-1.659 1.659c-0.055 0.063-0.095 0.138-0.118 0.219-0.029 0.081-0.046 0.167-0.049 0.254 0.089 0.473 0.293 1.014 0.608 1.625 0.271 0.542 0.689 1.199 1.25 1.977 0.566 0.778 1.366 1.674 2.402 2.69 1.014 1.036 1.918 1.844 2.708 2.417 0.788 0.576 1.447 0.999 1.977 1.27s0.935 0.433 1.218 0.49l0.421 0.084c0.076-0.006 0.15-0.022 0.222-0.049 0.082-0.023 0.158-0.064 0.222-0.121l1.925-1.962c0.388-0.354 0.897-0.548 1.423-0.542 0.382 0 0.687 0.069 0.911 0.204h0.034l6.528 3.855c0.475 0.295 0.756 0.665 0.847 1.118z"></path>
  </g>
</svg>
