<svg version="1.1" xmlns="http://www.w3.org/2000/svg" width="32" height="32" viewBox="0 0 32 32">
  <g fill-rule="evenodd" fill="currentColor">
    <path d="M4.75 12.571c0.99 0 1.838 0.354 2.546 1.061 0.706 0.709 1.061 1.57 1.061 2.587 0 1.019-0.354 1.881-1.061 2.59-0.709 0.709-1.557 1.061-2.546 1.061s-1.84-0.354-2.546-1.061c-0.344-0.336-0.616-0.739-0.799-1.185s-0.272-0.924-0.262-1.405c0-1.017 0.354-1.881 1.061-2.587 0.709-0.709 1.554-1.061 2.546-1.061v0zM26.473 12.571c0.99 0 1.84 0.354 2.546 1.061 0.709 0.709 1.061 1.57 1.061 2.587 0 1.019-0.354 1.881-1.061 2.59-0.709 0.709-1.554 1.061-2.546 1.061-0.99 0-1.838-0.354-2.546-1.061-0.344-0.336-0.616-0.739-0.799-1.185s-0.272-0.924-0.262-1.405c0-1.017 0.354-1.881 1.061-2.587 0.709-0.709 1.557-1.061 2.546-1.061v0zM15.611 12.571c0.99 0 1.838 0.354 2.546 1.061 0.709 0.709 1.061 1.57 1.061 2.587 0 1.019-0.354 1.881-1.061 2.59-0.709 0.709-1.554 1.061-2.546 1.061-0.99 0-1.838-0.354-2.546-1.061-0.344-0.336-0.616-0.739-0.799-1.185s-0.272-0.924-0.262-1.405c0-1.017 0.354-1.881 1.061-2.587 0.709-0.709 1.554-1.061 2.546-1.061z"></path>
  </g>
</svg>
