<svg version="1.1" xmlns="http://www.w3.org/2000/svg" width="32" height="32" viewBox="0 0 32 32">
  <g fill-rule="evenodd" fill="currentColor">
    <path d="M16.736 1.163c-0.109-0.014-0.219-0.017-0.329-0.009-0.144-0.005-0.286-0.011-0.43-0.011-0.16 0-0.315 0.007-0.473 0.011-0.13-0.010-0.26-0.004-0.389 0.016-3.777 0.224-7.326 1.88-9.923 4.632s-4.045 6.391-4.050 10.175c0 7.874 6.171 14.334 13.931 14.802 0.096 0.018 0.193 0.028 0.29 0.030 0.046 0 0.091-0.007 0.137-0.011 0.16 0.007 0.315 0.011 0.475 0.011 0.144 0 0.288-0.005 0.432-0.009 0.041 0 0.082 0.009 0.123 0.009 0.059 0 0.119-0.011 0.181-0.018 3.8-0.193 7.381-1.838 10.005-4.594s4.089-6.415 4.094-10.22c-0.005-3.801-1.467-7.456-4.085-10.212s-6.194-4.403-9.99-4.602zM24.235 7.989c-0.578 0.153-1.349 0.311-2.366 0.437-0.638-1.162-1.366-2.272-2.176-3.321 1.737 0.594 3.291 1.593 4.542 2.885zM20.526 17.641c-0.137 0.791-0.366 1.566-0.651 2.313-2.605-0.131-5.215-0.105-7.817 0.078-0.306-0.772-0.535-1.573-0.681-2.391h9.15zM11.374 14.311c0.146-0.837 0.393-1.653 0.704-2.439 2.587 0.18 5.182 0.206 7.771 0.078 0.297 0.763 0.533 1.554 0.674 2.361h-9.15zM15.947 5.803c0.672 0.763 1.458 1.746 2.194 2.88-1.453 0.031-2.907 0.014-4.359-0.050 0.731-1.113 1.504-2.078 2.165-2.83zM12.183 5.134c-0.709 0.926-1.44 2.002-2.098 3.191-0.771-0.096-1.535-0.235-2.29-0.416 1.232-1.247 2.733-2.196 4.389-2.775zM5.737 10.77c0.713 0.254 1.669 0.503 2.939 0.715-0.306 0.907-0.539 1.851-0.667 2.825h-3.399c0.183-1.257 0.569-2.448 1.127-3.541zM4.613 17.641h3.397c0.126 0.955 0.352 1.883 0.651 2.777-1.002 0.152-1.988 0.393-2.946 0.72-0.554-1.099-0.926-2.28-1.102-3.497zM7.755 24.002c0.76-0.183 1.529-0.324 2.304-0.421 0.663 1.207 1.406 2.302 2.126 3.239-1.676-0.586-3.193-1.551-4.434-2.821l0.005 0.002zM15.947 26.153c-0.674-0.763-1.463-1.746-2.199-2.88 1.476-0.066 2.953-0.084 4.43-0.053-0.747 1.154-1.547 2.155-2.231 2.933zM19.696 26.85c0.747-0.971 1.52-2.112 2.203-3.374 1.026 0.13 1.801 0.29 2.377 0.443-1.271 1.329-2.842 2.334-4.581 2.93zM26.281 21.061c-0.974-0.351-1.98-0.604-3.003-0.754 0.281-0.857 0.494-1.749 0.613-2.665h3.456c-0.172 1.189-0.532 2.343-1.065 3.419zM27.346 14.311h-3.454c-0.125-0.922-0.336-1.83-0.631-2.713 1.022-0.15 2.026-0.401 2.999-0.75 0.537 1.072 0.907 2.235 1.086 3.463z"></path>
  </g>
</svg>
