<svg version="1.1" xmlns="http://www.w3.org/2000/svg" width="32" height="32" viewBox="0 0 32 32">
  <g fill-rule="evenodd" fill="currentColor">
    <path d="M20.432 16.374c-0.069-0.065-0.123-0.144-0.161-0.231s-0.057-0.181-0.057-0.276c0-0.095 0.019-0.189 0.057-0.276s0.092-0.166 0.161-0.231l10.864-10.867c0.263-0.274 0.418-0.635 0.435-1.014-0.017-0.38-0.172-0.74-0.435-1.014l-2.026-2.029c-0.274-0.263-0.635-0.418-1.014-0.435-0.191-0.005-0.38 0.031-0.555 0.106s-0.332 0.187-0.459 0.329l-10.867 10.867c-0.065 0.069-0.144 0.123-0.231 0.161s-0.181 0.057-0.276 0.057-0.189-0.019-0.276-0.057c-0.087-0.037-0.166-0.092-0.231-0.161l-10.867-10.867c-0.274-0.263-0.635-0.418-1.014-0.435-0.38 0.017-0.74 0.172-1.014 0.435l-2.029 2.029c-0.263 0.274-0.418 0.635-0.435 1.014 0 0.288 0.144 0.723 0.435 1.014l10.867 10.867c0.288 0.288 0.288 0.723 0 1.014l-10.867 10.867c-0.263 0.274-0.418 0.635-0.435 1.014 0 0.288 0.144 0.723 0.435 1.014l2.029 2.029c0.274 0.263 0.635 0.418 1.014 0.435 0.38-0.017 0.74-0.172 1.014-0.435l10.867-10.867c0.288-0.288 0.723-0.288 1.014 0l10.867 10.864c0.274 0.263 0.635 0.418 1.014 0.435 0.38-0.017 0.74-0.172 1.014-0.435l2.029-2.029c0.263-0.274 0.418-0.635 0.435-1.014-0.017-0.38-0.172-0.74-0.435-1.014l-10.867-10.864z"></path>
  </g>
</svg>
