<svg version="1.1" xmlns="http://www.w3.org/2000/svg" width="32" height="32" viewBox="0 0 32 32">
  <g fill-rule="evenodd" fill="currentColor">
    <path d="M27.529 28.777v-17.536h-23.058v17.536h23.058zM22.578 0h3.326v3.223h1.625c0.878 0 1.65 0.325 2.322 0.974 0.67 0.649 1.006 1.399 1.006 2.249v22.331c0 0.85-0.336 1.6-1.006 2.249-0.302 0.309-0.664 0.555-1.063 0.722s-0.827 0.253-1.26 0.252h-23.058c-0.439 0.008-0.876-0.074-1.282-0.241s-0.774-0.417-1.079-0.733c-0.645-0.649-0.967-1.399-0.967-2.249v-22.331c0-0.85 0.322-1.6 0.967-2.249 0.306-0.316 0.673-0.565 1.079-0.733s0.843-0.25 1.282-0.241h1.623v-3.223h3.328v3.223h13.157v-3.223zM24.279 17.611v8.018h-8.279v-8.018h8.279z"></path>
  </g>
</svg>
