<svg version="1.1" xmlns="http://www.w3.org/2000/svg" width="9" height="32" viewBox="0 0 9 32">
  <g fill-rule="evenodd" fill="currentColor">
    <path d="M3.776 7.644c-1.035 0-1.924-0.369-2.667-1.109-0.36-0.352-0.644-0.775-0.835-1.241s-0.284-0.967-0.274-1.471c0-1.067 0.371-1.971 1.109-2.714 0.745-0.738 1.634-1.109 2.667-1.109 1.039 0 1.929 0.371 2.667 1.109 0.742 0.742 1.114 1.647 1.114 2.714s-0.371 1.969-1.111 2.709c-0.74 0.742-1.63 1.111-2.667 1.111h-0.002zM3.776 11.377c1.039 0 1.929 0.371 2.667 1.111 0.742 0.74 1.114 1.645 1.114 2.711s-0.371 1.971-1.111 2.709c-0.74 0.742-1.63 1.114-2.667 1.114s-1.926-0.371-2.669-1.111c-0.36-0.352-0.644-0.775-0.835-1.241s-0.284-0.967-0.274-1.471c0-1.067 0.371-1.971 1.109-2.709 0.742-0.742 1.632-1.114 2.667-1.114zM3.776 22.756c1.039 0 1.929 0.369 2.667 1.109 0.742 0.742 1.114 1.645 1.114 2.711s-0.371 1.971-1.111 2.711c-0.74 0.74-1.63 1.111-2.667 1.111s-1.926-0.371-2.667-1.109c-0.361-0.353-0.646-0.775-0.837-1.243s-0.284-0.969-0.274-1.473c0-1.067 0.371-1.969 1.109-2.709 0.742-0.742 1.632-1.109 2.667-1.109z"></path>
  </g>
</svg>
