<svg version="1.1" xmlns="http://www.w3.org/2000/svg" width="32" height="32" viewBox="0 0 32 32">
  <g fill-rule="evenodd" fill="currentColor">
    <path d="M22.251 19.584l8.832 8.832-2.667 2.667-8.832-8.832v-1.417l-0.501-0.501c-2.080 1.802-4.747 2.781-7.499 2.752-3.221 0-5.958-1.126-8.209-3.377-2.251-2.249-3.375-4.971-3.375-8.166 0-3.194 1.124-5.916 3.375-8.166s4.971-3.375 8.166-3.375c3.196 0 5.918 1.124 8.166 3.375 2.251 2.251 3.375 4.986 3.375 8.209 0 2.833-0.917 5.333-2.75 7.499l0.501 0.501h1.417zM11.584 19.584c2.221 0 4.111-0.779 5.666-2.334 1.557-1.557 2.334-3.445 2.334-5.666 0-2.223-0.779-4.111-2.334-5.668-1.557-1.555-3.447-2.332-5.666-2.332-2.223 0-4.111 0.777-5.668 2.332-1.555 1.557-2.332 3.445-2.332 5.668 0 2.221 0.777 4.111 2.332 5.666 1.557 1.557 3.445 2.334 5.668 2.334z"></path>
  </g>
</svg>
