<svg version="1.1" xmlns="http://www.w3.org/2000/svg" width="32" height="32" viewBox="0 0 32 32">
  <g fill-rule="evenodd" fill="currentColor">
    <path d="M0 25.334l19.667-19.67 6.666 6.666-19.667 19.67h-6.666v-6.666zM31.501 7.168l-3.251 3.248-6.666-6.666 3.248-3.251c0.163-0.164 0.359-0.293 0.574-0.379s0.446-0.127 0.677-0.12c0.231-0.006 0.461 0.035 0.676 0.121s0.409 0.215 0.572 0.378l4.17 4.166c0.165 0.164 0.294 0.36 0.38 0.575s0.126 0.447 0.119 0.679c0.006 0.231-0.035 0.461-0.121 0.676s-0.215 0.409-0.379 0.572z"></path>
  </g>
</svg>
