<svg xmlns="http://www.w3.org/2000/svg" viewBox="9 8 29 29">
    <g fill-rule="evenodd" fill="currentColor">
        <path d="M30.23 15.614c1.427.011 2.639.946 3.08 2.337.068.228.25.467.442.593 1.575 1.014 2.073 2.896 1.167 4.469-.906 1.562-2.764 2.052-4.43 1.22-.18-.091-.486-.034-.69.057-1.37.661-2.945.376-3.93-.73a3.296 3.296 0 0 1-.33-3.956c.057-.091.114-.217.204-.274.873-.592 1.348-1.482 1.88-2.371.567-.946 1.519-1.334 2.606-1.345zm-8.272 17.142c-.057 2.6-2.572 4.127-4.77 2.987-.305-.16-.509-.16-.815 0-1.642.866-3.489.262-4.395-1.391-.815-1.482-.226-3.432 1.28-4.355.181-.114.34-.33.408-.536.442-1.414 1.665-2.349 3.126-2.349 1.462 0 2.662.924 3.127 2.349.068.217.26.445.453.57 1.03.673 1.552 1.619 1.586 2.725zm-.496-9.36c0 .821-.226 1.574-.77 2.2-.748.856-1.903.867-2.673.035-1.076-1.152-1.076-3.33-.012-4.492.782-.855 1.96-.844 2.708.057.532.627.747 1.38.747 2.2zm4.068-11.72c.012-.626.215-1.39.793-2.029.748-.843 1.858-.866 2.64-.045 1.11 1.163 1.11 3.42-.012 4.583-.759.787-1.846.775-2.605-.034-.521-.559-.804-1.368-.816-2.474zm-9.16 11.719c-.01.843-.226 1.607-.815 2.246-.747.81-1.835.82-2.594.023-1.121-1.163-1.121-3.42 0-4.584.782-.81 1.892-.786 2.64.057.555.65.77 1.414.77 2.258zm18.49-11.517c0 .934-.26 1.755-.963 2.405-.691.639-1.665.616-2.356-.023-1.224-1.14-1.246-3.58-.034-4.742.736-.707 1.744-.685 2.48.034.567.547.873 1.38.873 2.326zM38 15.119c-.034.844-.227 1.505-.714 2.053-.827.9-2.039.684-2.514-.434-.386-.9-.136-2.223.555-2.907.85-.855 2.073-.604 2.492.536.102.274.136.581.181.752zM24.577 26.61c-.011.89-.227 1.574-.748 2.11-.827.843-2.05.604-2.458-.513-.362-.981-.204-1.904.43-2.725.375-.502.884-.776 1.53-.65.623.125.963.558 1.144 1.14.057.25.08.524.102.638zM22.41 15.241c0-1.175.669-1.973 1.609-1.927.181.011.374.057.543.137 1.247.593 1.666 2.77.748 3.796-.51.57-1.303.627-1.937.148-.6-.444-.963-1.265-.963-2.154zm-9.942 12.056c-.113.377-.181.776-.351 1.118-.43.855-1.394 1.06-2.153.49-.951-.707-1.268-2.394-.634-3.398.51-.82 1.507-.946 2.232-.273.589.547.815 1.254.906 2.063z"/>
    </g>
</svg>
