<svg xmlns="http://www.w3.org/2000/svg" viewBox="11 11 25 25">
    <g fill-rule="evenodd" fill="currentColor">
        <path d="M35.988 30.725c.053.406-.07.76-.37 1.06l-3.52 3.492a1.981 1.981 0 0 1-.622.45 2.57 2.57 0 0 1-.754.239c-.018 0-.071.004-.16.013a3.604 3.604 0 0 1-.343.013c-.336 0-.878-.057-1.628-.172-.75-.115-1.667-.397-2.752-.847-1.086-.45-2.316-1.125-3.692-2.024-1.377-.9-2.841-2.135-4.394-3.706-1.235-1.217-2.258-2.382-3.07-3.493-.811-1.112-1.464-2.14-1.958-3.083-.494-.944-.865-1.8-1.112-2.568-.247-.767-.415-1.429-.503-1.985-.088-.555-.123-.992-.106-1.31.018-.317.027-.494.027-.529.035-.247.115-.498.238-.754.124-.256.274-.463.45-.622l3.52-3.52c.247-.247.53-.37.847-.37.23 0 .432.066.609.198.176.132.326.295.45.49l2.831 5.372c.16.282.203.591.133.926a1.65 1.65 0 0 1-.45.847l-1.297 1.297a.441.441 0 0 0-.093.172.653.653 0 0 0-.04.199c.071.37.23.794.477 1.27.212.423.538.94.98 1.548.44.609 1.067 1.31 1.878 2.104.794.812 1.5 1.443 2.118 1.893.617.45 1.133.78 1.548.992.414.212.732.34.953.384l.33.066a.63.63 0 0 0 .172-.04.442.442 0 0 0 .172-.092l1.509-1.536a1.621 1.621 0 0 1 1.112-.423c.3 0 .538.053.714.159h.026l5.108 3.017c.371.23.591.52.662.873z"/>
    </g>
</svg>
