<svg xmlns="http://www.w3.org/2000/svg" viewBox="10 10 26 26">
    <g fill-rule="evenodd" fill="currentColor">
        <path d="M35.777 22.007a.762.762 0 0 1 0 1.078l-3.94 3.94 1.893-7.064 2.047 2.046zm-13.77 13.77L17.8 31.568l7.488 2.007-2.202 2.202a.762.762 0 0 1-1.078 0zm2.57-7.066c0 .42-.34.762-.761.762H10.762A.762.762 0 0 1 10 28.71v-17.95c0-.42.341-.761.762-.761h13.054c.42 0 .762.341.762.762v17.95zM12.448 13.21v1.632a.762.762 0 0 0 1.524 0V13.21a.762.762 0 0 0-1.523 0zm5.38 10.33l2.448-2.448a2.495 2.495 0 0 0 0-3.525 2.497 2.497 0 0 0-2.986-.41 2.497 2.497 0 0 0-2.986.41 2.495 2.495 0 0 0 0 3.525l2.447 2.448a.76.76 0 0 0 1.077 0zm4.303 2.725v-1.632a.762.762 0 0 0-1.523 0v1.632a.762.762 0 0 0 1.523 0zM32.988 13.9a.762.762 0 0 1 .538.933l-4.645 17.338a.762.762 0 0 1-.933.538l-6.397-1.714h2.265c.957 0 1.778-.592 2.118-1.428a.762.762 0 0 0 1.216-.394l.422-1.576a.762.762 0 0 0-1.47-.395v-3.65l.896-.704a.762.762 0 0 0 .236-.883l-1.133-2.823v-7.087l6.887 1.845zm-15.16 4.742a.97.97 0 0 1 1.37 1.37l-1.91 1.91-1.908-1.91a.97.97 0 0 1 1.37-1.37.762.762 0 0 0 1.077 0z"/>
    </g>
</svg>
