<svg xmlns="http://www.w3.org/2000/svg" width="46" height="46" viewBox="9.5 9 27 27">
    <g fill-rule="evenodd" fill="currentColor">
        <path d="M29.826 18.868c1.63 0 2.978 1.459 3.242 3.014H12.484c.263-1.554 1.611-3.014 3.24-3.014h5.854a.96.96 0 0 1-.958-.96c0-.53.43-.957.958-.957h2.394a.958.958 0 1 1 0 1.917h5.854zm3.289 4.659h3.29v1.37h-3.29v8.218a3.288 3.288 0 0 1-3.288 3.29H15.724a3.288 3.288 0 0 1-3.289-3.29v-8.492H9v-1.37H33.115v.274zM17.742 12.294a2.875 2.875 0 0 1-.44-.904 2.126 2.126 0 0 1-.024-1.06c.174-.702.708-1.203 1.307-1.33-.23.562-.308 1.05-.238 1.433.066.378.246.7.503 1.057.063.09.132.18.207.268.074.097.18.223.264.348.17.253.328.53.424.87.047.171.08.36.065.57a.997.997 0 0 1-.25.604.829.829 0 0 1-.504.253.968.968 0 0 1-.47-.054c.121-.094.226-.188.3-.286.075-.098.113-.197.104-.27-.008-.069-.041-.115-.078-.174a2.228 2.228 0 0 0-.152-.208 7.144 7.144 0 0 0-.448-.49l-.266-.265a4.701 4.701 0 0 1-.304-.362zm3.554 0a2.868 2.868 0 0 1-.44-.902 2.126 2.126 0 0 1-.024-1.06c.173-.702.706-1.204 1.305-1.33-.23.561-.307 1.05-.237 1.431.067.378.248.7.505 1.057.061.09.132.18.205.268.075.097.18.223.264.348.17.253.329.53.426.87.048.171.079.36.064.57a.993.993 0 0 1-.25.604.827.827 0 0 1-.504.253.978.978 0 0 1-.473-.054c.124-.094.23-.188.303-.286.075-.098.112-.197.102-.27-.006-.069-.038-.115-.076-.174a2.92 2.92 0 0 0-.15-.208 8.127 8.127 0 0 0-.452-.49l-.264-.265a4.884 4.884 0 0 1-.304-.362zm3.238 0a2.827 2.827 0 0 1-.44-.904 2.135 2.135 0 0 1-.025-1.06c.172-.702.707-1.203 1.306-1.33-.23.562-.308 1.05-.237 1.433.066.378.246.7.503 1.057.062.09.132.18.206.268.075.097.18.223.265.348.17.253.328.53.424.87.047.171.08.36.064.57a.996.996 0 0 1-.25.604.833.833 0 0 1-.505.253.974.974 0 0 1-.47-.054c.123-.094.228-.188.302-.286.075-.098.114-.197.104-.27-.01-.069-.042-.115-.078-.174a2.228 2.228 0 0 0-.152-.208 7.567 7.567 0 0 0-.449-.49l-.265-.265a4.522 4.522 0 0 1-.303-.362z"/>
    </g>
</svg>
