<svg version="1.1" xmlns="http://www.w3.org/2000/svg" width="32" height="32" viewBox="0 0 32 32">
  <g fill-rule="evenodd" fill="currentColor">
    <path d="M16 32c-4.243 0-8.313-1.686-11.314-4.686s-4.686-7.070-4.686-11.314 1.686-8.313 4.686-11.314c3.001-3.001 7.070-4.686 11.314-4.686s8.313 1.686 11.314 4.686c3.001 3.001 4.686 7.070 4.686 11.314s-1.686 8.313-4.686 11.314c-3 3.001-7.070 4.686-11.314 4.686zM16 29.714c1.801 0 3.584-0.355 5.248-1.044s3.176-1.699 4.449-2.973c1.274-1.273 2.284-2.785 2.973-4.449s1.044-3.447 1.044-5.248-0.355-3.584-1.044-5.248c-0.689-1.664-1.699-3.176-2.973-4.449s-2.785-2.284-4.449-2.973c-1.664-0.689-3.447-1.044-5.248-1.044-3.637 0-7.126 1.445-9.697 4.017s-4.017 6.060-4.017 9.697c0 3.637 1.445 7.125 4.017 9.697s6.060 4.017 9.697 4.017zM16 25.143c-2.425 0-4.75-0.963-6.465-2.678s-2.678-4.040-2.678-6.465 0.963-4.75 2.678-6.465c1.715-1.715 4.040-2.678 6.465-2.678s4.75 0.963 6.465 2.678c1.715 1.715 2.678 4.040 2.678 6.465s-0.963 4.75-2.678 6.465c-1.715 1.715-4.040 2.678-6.465 2.678z"></path>
  </g>
</svg>
