<svg xmlns="http://www.w3.org/2000/svg" viewBox="11 11 24 24">
    <g fill-rule="evenodd" fill="currentColor">
        <path d="M13.263 33.214h19.474v2.273H13.263v-2.273zM32.088 11c1.049 0 1.902.853 1.902 1.902V31.76H12.01V12.902c0-1.049.853-1.902 1.902-1.902h18.176zm-3.582 11.107v-1.455h-3.75l1.021-1.02h1.841v-1.456h-1.415v-1.415h-1.455v1.841l-1.02 1.021v-3.749h-1.455v3.75l-1.021-1.021V16.76h-1.455v1.415h-1.415v1.455h1.841l1.021 1.021h-3.75v1.455h3.75l-1.021 1.02h-1.841v1.455h1.415v1.416h1.455v-1.842l1.02-1.02v3.749h1.455v-3.75l1.021 1.021v1.841h1.455v-1.415h1.415v-1.454h-1.841l-1.02-1.021h3.749z"/>
    </g>
</svg>
