<svg version="1.1" xmlns="http://www.w3.org/2000/svg" width="32" height="32" viewBox="0 0 32 32">
  <g fill-rule="evenodd" fill="currentColor">
    <path d="M30.103 2.478c-0.528-0.219-0.981-0.13-1.355 0.27l-2.514 2.496c-1.373-1.297-2.978-2.324-4.731-3.026-1.747-0.711-3.616-1.076-5.502-1.074-2.011 0-3.931 0.393-5.765 1.179-1.769 0.744-3.378 1.821-4.741 3.173-1.351 1.363-2.428 2.972-3.173 4.741-0.784 1.82-1.186 3.783-1.179 5.765 0 2.011 0.393 3.931 1.179 5.765 0.744 1.769 1.821 3.378 3.173 4.741 1.363 1.35 2.972 2.427 4.741 3.17 1.82 0.785 3.782 1.187 5.765 1.182 2.217 0 4.327-0.469 6.327-1.403 1.977-0.918 3.723-2.27 5.106-3.954 0.101-0.122 0.152-0.278 0.144-0.437-0.001-0.075-0.018-0.15-0.049-0.218s-0.077-0.13-0.134-0.179l-2.651-2.667c-0.134-0.113-0.304-0.176-0.48-0.176-0.208 0.027-0.357 0.105-0.448 0.233-0.917 1.205-2.103 2.178-3.463 2.843-1.353 0.667-2.843 1.012-4.352 1.006-1.32 0.005-2.627-0.261-3.84-0.782-1.181-0.496-2.255-1.216-3.163-2.119-0.889-0.891-1.595-1.943-2.117-3.163-0.521-1.213-0.788-2.52-0.784-3.84 0-1.342 0.261-2.622 0.784-3.84 0.521-1.218 1.227-2.272 2.117-3.163 0.891-0.889 1.945-1.595 3.163-2.117 1.213-0.521 2.52-0.788 3.84-0.784 2.592 0 4.843 0.882 6.752 2.651l-2.67 2.665c-0.4 0.389-0.489 0.832-0.272 1.335 0.219 0.517 0.601 0.775 1.143 0.775h8.665c0.163 0.002 0.324-0.030 0.474-0.094s0.285-0.157 0.397-0.274c0.117-0.112 0.21-0.247 0.274-0.396s0.095-0.31 0.094-0.472v-8.67c0.012-0.246-0.054-0.49-0.19-0.695s-0.333-0.362-0.564-0.448v0.005z"></path>
  </g>
</svg>
