<svg xmlns="http://www.w3.org/2000/svg" viewBox="11 11 25 25">
    <g fill-rule="evenodd" fill="currentColor">
        <path d="M32.066 11A3.939 3.939 0 0 1 36 14.934v17.132A3.939 3.939 0 0 1 32.066 36H14.934A3.939 3.939 0 0 1 11 32.066v-5.49h3.107v4.163c0 1.188.966 2.154 2.154 2.154h14.478a2.156 2.156 0 0 0 2.154-2.154V16.261a2.156 2.156 0 0 0-2.154-2.154H16.261a2.156 2.156 0 0 0-2.154 2.154v4.163H11v-5.49A3.939 3.939 0 0 1 14.934 11h17.132zM11 21.918h3.107v3.165H11v-3.165zM30.74 15.6a.66.66 0 0 1 .659.66V30.74a.66.66 0 0 1-.66.659H16.261a.66.66 0 0 1-.66-.66V16.262a.66.66 0 0 1 .66-.66h14.478zM23.5 28.78A5.285 5.285 0 0 0 28.78 23.5a5.285 5.285 0 0 0-5.279-5.279 5.285 5.285 0 0 0-5.279 5.279 5.285 5.285 0 0 0 5.28 5.279zm0-6.225a.947.947 0 0 1 0 1.892.947.947 0 0 1 0-1.892zm1.114 3.116l.98.98c-.6.4-1.32.635-2.094.635a3.762 3.762 0 0 1-2.094-.634l.98-.981a2.424 2.424 0 0 0 2.228 0zm-.367-5.88a3.791 3.791 0 0 1 3.038 3.71c0 .774-.234 1.494-.634 2.094l-.98-.98a2.424 2.424 0 0 0-.075-2.364 2.452 2.452 0 0 0-1.349-1.073V19.79zm-4.532 3.71a3.791 3.791 0 0 1 3.038-3.71v1.387A2.444 2.444 0 0 0 21.06 23.5c0 .401.098.78.27 1.114l-.98.98c-.4-.6-.635-1.32-.635-2.094z"/>
    </g>
</svg>
