<svg xmlns="http://www.w3.org/2000/svg" viewBox="9 9 28.5 28.5">
    <g fill-rule="evenodd" fill="currentColor">
        <path d="M23.298 37.597c7.897 0 14.299-6.402 14.299-14.299C37.597 15.402 31.195 9 23.298 9 15.402 9 9 15.401 9 23.298s6.402 14.299 14.298 14.299zm0-26.18c6.553 0 11.882 5.33 11.882 11.881 0 2.742-.936 5.27-2.503 7.282l-5.32-5.303h2.749v-4.14h-6.9l-7.218-7.195a11.821 11.821 0 0 1 7.31-2.526zm-9.36 4.577l5.16 5.143h-6.231v4.14H23.25l7.383 7.36a11.818 11.818 0 0 1-7.334 2.544c-6.552 0-11.882-5.33-11.882-11.883 0-2.753.943-5.288 2.52-7.304zm16.812 5.143h1.289v4.14H30.75v-4.14zm1.933 0h1.29v4.14h-1.29v-4.14zm-5.56-4.305c-7.495-.805-5.878-4.47-5.878-4.47s-.403 2.86 5.558 2.772c5.961-.09 6.203 4.772 6.203 4.772-1.048-3.094-5.884-3.074-5.884-3.074zm4.513 3.912c-.856-2.164-4.809-2.15-4.808-2.15-6.126-.563-4.805-3.127-4.805-3.127s-.33 2 4.543 1.938c4.872-.063 5.07 3.339 5.07 3.339z"/>
    </g>
</svg>
