<svg xmlns="http://www.w3.org/2000/svg" viewBox="9 9.5 28 28">
    <g fill-rule="evenodd" fill="currentColor">
        <path d="M27.22 35.956H9v-1.699c.332.263.755.423 1.21.423h15.753l1.258 1.276zM16.886 11.007a1.771 1.771 0 0 0-.997 3.233 4.092 4.092 0 0 1 .959-1.501 4.092 4.092 0 0 1 1.5-.959 1.767 1.767 0 0 0-1.462-.773zm-.506 4.639a3.375 3.375 0 1 0 6.75-.001 3.375 3.375 0 0 0-6.75 0zM14.547 20.3c-.79 1.753-2.513 6.23-2.987 7.358h5.878c.13-.32.276-.63.436-.923.553-1.033 2.282-1.545 1.87-2.986-.003-.012-.009-.024-.012-.039l1.548 1.468c.116.11.255.198.403.255l4.232 1.616a1.214 1.214 0 0 0 1.572-.704 1.217 1.217 0 0 0-.704-1.572l-3.742-1.43a1.472 1.472 0 0 1-.47-.296l-3.297-3.128a1.32 1.32 0 0 0-.51-.282 1.912 1.912 0 0 0-.139-.041 2.426 2.426 0 0 0-.156-.042c-.823-.219-1.738-.405-2.584-.331-.279.024-.583.095-.82.257-.273.196-.385.527-.518.82zm-4.336 13.64h16.06l1.539 1.56a1.526 1.526 0 0 0 1.086.455h6.559c.852 0 1.54-.699 1.527-1.551-.014-.838-.713-1.5-1.55-1.5h-5.897l-4.007-4.067c-.311-.317-.495-.447-1.051-.447l-14.266.008A1.21 1.21 0 0 0 9 29.61v3.12c0 .669.542 1.21 1.21 1.21zm24.57-5.583a3.503 3.503 0 0 0-3.502-3.501 3.503 3.503 0 0 0-3.502 3.501 3.5 3.5 0 1 0 7.003 0z"/>
    </g>
</svg>
