<svg xmlns="http://www.w3.org/2000/svg" xmlns:xlink="http://www.w3.org/1999/xlink" width="14" height="14" viewBox="0 0 14 14">
    <g transform="translate(1.25 0.646)" fill-rule="evenodd">
        <path id="a" fill="currentColor" d="M5.677 2.794a.516.516 0 1 1 0 1.032H1.032v7.225h7.226V6.406a.516.516 0 0 1 1.032 0v5.162a.516.516 0 0 1-.516.516H.516A.516.516 0 0 1 0 11.568V3.31c0-.285.231-.516.516-.516zM10.838.729c.285 0 .517.231.517.516v4.13a.516.516 0 0 1-1.033 0V2.49L5.01 7.804a.514.514 0 0 1-.73 0 .516.516 0 0 1 0-.73L9.592 1.76H6.71a.516.516 0 0 1 0-1.032z"/>
    </g>
</svg>
