<svg xmlns="http://www.w3.org/2000/svg" viewBox="8 8 30 30">
    <g fill-rule="evenodd" fill="currentColor">
        <path d="M31.287 24.67a4.873 4.873 0 1 1 0-9.746 4.873 4.873 0 0 1 0 9.746zm-10.498-3.963l-3.078-2.298-6.926 1.36.838-3.842 6.66-1.89 5.83 4.352 4.266 7.21c-.253.16-.464.327-.642.47-.393.315-.526.42-.936.42-.41 0-.542-.105-.935-.42-.537-.43-1.348-1.078-2.81-1.078-1.463 0-2.273.649-2.81 1.078-.393.315-.525.42-.935.42-.41 0-.542-.105-.935-.42-.537-.43-1.347-1.078-2.81-1.078-.324 0-.614.033-.879.087l6.102-4.371zm14.363 6.545c.536-.43 1.347-1.079 2.81-1.079v2.999c-.41 0-.543.106-.936.42-.537.43-1.347 1.079-2.81 1.079s-2.274-.649-2.81-1.079c-.393-.314-.526-.42-.936-.42-.41 0-.542.106-.935.42-.537.43-1.347 1.079-2.81 1.079-1.462 0-2.273-.649-2.81-1.079-.392-.314-.525-.42-.935-.42-.41 0-.542.106-.935.42-.537.43-1.347 1.079-2.81 1.079-1.462 0-2.273-.649-2.81-1.079-.392-.314-.525-.42-.935-.42-.41 0-.542.106-.935.42-.537.43-1.347 1.079-2.81 1.079-1.462 0-2.273-.649-2.81-1.079-.393-.314-.525-.42-.935-.42v-2.999c1.462 0 2.273.65 2.81 1.079.393.315.525.42.935.42.41 0 .542-.105.936-.42.536-.43 1.347-1.079 2.81-1.079 1.462 0 2.272.65 2.809 1.079.393.315.525.42.935.42.41 0 .542-.105.935-.42.537-.43 1.348-1.079 2.81-1.079 1.463 0 2.273.65 2.81 1.079.393.315.525.42.935.42.41 0 .543-.105.936-.42.536-.43 1.347-1.079 2.81-1.079 1.462 0 2.273.65 2.809 1.079.393.315.526.42.936.42.41 0 .543-.105.936-.42z"/>
    </g>
</svg>
