<svg xmlns="http://www.w3.org/2000/svg" viewBox="10 10 26 26">
    <g fill-rule="evenodd" fill="currentColor">
        <path d="M34.888 19.282c-.118 0-.238.017-.358.05l-1.263.348-1.334-3.251c-.4-.974-1.582-1.767-2.636-1.767h-.888v-2.695a.86.86 0 0 0-.859-.86h-9.104a.86.86 0 0 0-.859.86v2.695h-.906c-1.053 0-2.236.792-2.636 1.767l-1.332 3.246-1.246-.343a1.35 1.35 0 0 0-.358-.05c-.643 0-1.109.49-1.109 1.167v.69c0 .79.642 1.433 1.432 1.433h.092l-.191.464c-.372.905-.674 2.437-.674 3.416v6.485c0 .79.642 1.432 1.432 1.432h1.72c.79 0 1.433-.642 1.433-1.432v-1.594h15.49v1.594c0 .79.643 1.432 1.432 1.432h1.721c.79 0 1.432-.642 1.432-1.432v-6.485c0-.979-.302-2.511-.674-3.416l-.19-.464h.11c.79 0 1.431-.643 1.431-1.432v-.691c0-.676-.466-1.167-1.108-1.167zm-8.439-7.029c0-.018.015-.034.034-.034h.662c.019 0 .034.016.034.034v2.383c0 .011-.006.02-.015.026h-.7c-.009-.006-.015-.015-.015-.026v-2.383zm-4.746-.034h.795c.019 0 .04.014.047.032l.944 2.373.865-1.07a.05.05 0 0 0 .003-.056l-.83-1.25c-.011-.016-.004-.029.015-.029h.735c.019 0 .042.013.052.03l.428.694c.01.016.026.016.036 0l.429-.695a.068.068 0 0 1 .052-.029h.736c.019 0 .026.013.015.029l-.83 1.25a.05.05 0 0 0 .002.055l.88 1.09c.007.007.008.014.006.019h-.781a.064.064 0 0 1-.025-.021l-.484-.774c-.01-.016-.026-.016-.036 0l-.482.774a.064.064 0 0 1-.025.021h-1.472a.047.047 0 0 1-.022-.025l-.162-.496a.05.05 0 0 0-.045-.033h-.902a.052.052 0 0 0-.045.033l-.175.497a.048.048 0 0 1-.023.024h-.707c-.006-.006-.008-.014-.004-.024l.962-2.387a.055.055 0 0 1 .048-.032zm-2.328 2.417v-1.893a.034.034 0 0 0-.034-.034h-.796a.034.034 0 0 1-.034-.034v-.422c0-.019.015-.034.034-.034h2.395c.02 0 .035.015.035.034v.422a.034.034 0 0 1-.035.034h-.8a.034.034 0 0 0-.034.034v1.893c0 .011-.007.02-.015.026h-.7c-.01-.006-.016-.015-.016-.026zm-5.65 7.138l2.027-4.94c.24-.583.95-1.06 1.58-1.06h11.314c.63 0 1.34.477 1.58 1.06l2.028 4.94c.24.582-.08 1.06-.71 1.06h-17.11c-.63 0-.949-.478-.71-1.06zm4.58 6.361a.574.574 0 0 1-.572.573h-3.871a.574.574 0 0 1-.573-.573V26.3c0-.315.258-.573.573-.573h3.87c.316 0 .573.258.573.573v1.836zm14.347 0a.574.574 0 0 1-.573.573h-3.87a.574.574 0 0 1-.573-.573V26.3c0-.315.257-.573.572-.573h3.871c.315 0 .573.258.573.573v1.836zM22.388 13.618h-.575c-.019 0-.028-.014-.02-.031l.302-.66c.008-.017.02-.016.028 0l.286.66c.007.017-.002.031-.021.031z"/>
    </g>
</svg>
