<svg xmlns="http://www.w3.org/2000/svg" viewBox="9 9 28 28">
    <g fill-rule="evenodd" fill="currentColor">
        <path d="M33.564 25.346c4.167-4.167 4.689-10.427 1.162-13.953-3.526-3.526-9.786-3.004-13.953 1.163-1.486 1.486-2.56 3.287-3.105 5.207-.047.166-2.351 9.664-2.291 9.491l-2.272 2.272 3.489 3.488 2.271-2.271 9.49-2.292c1.922-.545 3.723-1.619 5.209-3.105zm-.606-1.768l-1.72-1.72 2.326-2.326L34.73 20.7a10.498 10.498 0 0 1-1.772 2.88zm-11.022-4.045l2.325-2.326 1.744 1.744-2.325 2.326-1.744-1.744zm.581 2.906l-2.281 2.282a6.414 6.414 0 0 1-1.112-2.377l1.65-1.649 1.743 1.744zm2.907-6.395l2.326-2.325 1.744 1.744-2.326 2.325-1.744-1.744zm1.744 4.07l1.744 1.744-2.325 2.326-1.744-1.745 2.325-2.325zm1.163-1.163l2.326-2.325L32.4 18.37l-2.326 2.325-1.744-1.744zm6.94-.036l-.545-.545.684-.684c-.019.407-.06.817-.139 1.229zm-.057-3.359l-1.65 1.65-1.745-1.743 2.284-2.284a6.382 6.382 0 0 1 1.111 2.377zm-4.65-4.65c.863.208 1.67.573 2.376 1.11L30.657 14.3l-1.745-1.744 1.651-1.65zm-2.13-.197l-.684.684-.545-.545a8.58 8.58 0 0 1 1.228-.139zm-3.014.68l1.167 1.167-2.326 2.325-1.72-1.72c.894-.77 1.872-1.36 2.88-1.772zm-4.03 2.946l1.709 1.71-2.326 2.325-1.163-1.163a10.486 10.486 0 0 1 1.78-2.872zm-2.316 4.661l.536.536-.693.693c.019-.404.078-.815.157-1.229zm-.371 10.094l-1.674-1.673.858-3.553a7.822 7.822 0 0 0 1.723 2.645 7.825 7.825 0 0 0 2.645 1.724l-3.552.857zm5.072-2.095a6.413 6.413 0 0 1-2.377-1.111l2.282-2.282 1.744 1.744-1.649 1.65zm2.119.207l.693-.693.536.536c-.414.08-.825.139-1.229.157zm1.856-1.856l2.325-2.325 1.71 1.709a10.485 10.485 0 0 1-2.873 1.779l-1.162-1.163zm-12.319 8.83L12.49 37.12 9 33.631l2.942-2.943 3.488 3.489zm18.345 2.943a3.289 3.289 0 1 1 0-6.577 3.289 3.289 0 0 1 0 6.577z"/>
    </g>
</svg>
