<?xml version="1.0" encoding="iso-8859-1"?>
<!-- Generator: Adobe Illustrator 19.0.0, SVG Export Plug-In . SVG Version: 6.00 Build 0)  -->
<svg version="1.1" id="Capa_1" xmlns="http://www.w3.org/2000/svg" xmlns:xlink="http://www.w3.org/1999/xlink" x="0px"
     y="0px"
     viewBox="0 0 490 490" style="enable-background:new 0 0 490 490;" xml:space="preserve">
<g fill="currentColor">
	<g>
		<path d="M245,0C109.7,0,0,109.7,0,245s109.7,245,245,245s245-109.7,245-245S380.3,0,245,0z M245,437.1
			c-106.2,0-192.1-85.9-192.1-192.1S138.8,52.9,245,52.9S437.1,138.8,437.1,245S351.2,437.1,245,437.1z"/>
        <path d="M245,74.7c-94.1,0-170.3,76.2-170.3,170.3S150.9,415.3,245,415.3S415.3,339.1,415.3,245S339.1,74.7,245,74.7z
			 M335.2,255.1h-80.1v10.5c0,5.4-4.3,10.1-10.1,10.1c-5.8,0-10.1-4.3-10.1-10.1v-10.5H226c-5.4,0-10.1-4.3-10.1-10.1
			c0-5.8,4.3-10.1,10.1-10.1h8.9V107.3c0-5.4,4.3-10.1,10.1-10.1c5.8,0,10.1,4.3,10.1,10.1v127.9h80.1c5.4,0,10.1,4.3,10.1,10.1
			C345.3,251.1,340.7,255.1,335.2,255.1z"/>
	</g>
</g>
</svg>
