<svg version="1.1" xmlns="http://www.w3.org/2000/svg" width="32" height="32" viewBox="0 0 32 32">
  <g fill-rule="evenodd" fill="currentColor">
    <path d="M15.863 0c-4.206 0.005-8.238 1.678-11.211 4.651s-4.647 7.006-4.651 11.211c0.005 4.206 1.678 8.238 4.651 11.211s7.006 4.647 11.211 4.651c4.206-0.005 8.238-1.678 11.211-4.651s4.647-7.006 4.651-11.211c-0.005-4.206-1.678-8.238-4.651-11.211s-7.006-4.647-11.211-4.651zM15.863 28.35c-3.31-0.004-6.484-1.321-8.825-3.662s-3.658-5.514-3.662-8.825c0.004-3.31 1.321-6.484 3.662-8.825s5.514-3.658 8.825-3.662c3.31 0.004 6.484 1.321 8.825 3.662s3.658 5.514 3.662 8.825c-0.004 3.31-1.321 6.484-3.662 8.825s-5.514 3.658-8.825 3.662zM24.13 15.374h-7.129v-8.571c0-0.346-0.138-0.679-0.383-0.924s-0.577-0.383-0.924-0.383c-0.346 0-0.679 0.138-0.924 0.383s-0.383 0.577-0.383 0.924v9.877c0 0.722 0.585 1.307 1.307 1.307h8.434c0.346 0 0.679-0.138 0.924-0.383s0.383-0.577 0.383-0.924c0-0.346-0.138-0.679-0.383-0.924s-0.577-0.383-0.924-0.383z"></path>
  </g>
</svg>
