<svg xmlns="http://www.w3.org/2000/svg" viewBox="1.4 1.4 13 13">
    <g fill-rule="evenodd" fill="currentColor">
        <path fill-rule="nonzero" d="M7.257 9.642L6.55 7.658V4.01l-.288-.51H2.51l-.288.51v3.648l-.708 1.984h5.744zM5.973 4.52v2.479c-.31-.16-.81-.313-1.588-.313-.777 0-1.278.153-1.588.313v-2.48h3.176zM1.5 10.27h5.77v1.02h-.671v1.404h-.576v-1.405H2.747v1.405h-.576v-1.405H1.5v-1.02zm4.028-3.934V5.532c0-.353-.512-.638-1.143-.638s-1.143.285-1.143.638v.805s.717-.064 1.143-.064c.426 0 1.143.063 1.143.063zm8.73 3.306H8.512l.708-1.984V4.01l.288-.51h3.752l.288.51v3.648l.708 1.984zM12.972 4.52H9.797v2.479c.31-.16.81-.313 1.588-.313.777 0 1.278.153 1.588.313v-2.48zM8.5 10.27h5.77v1.02h-.671v1.404h-.576v-1.405H9.747v1.405h-.576v-1.405H8.5v-1.02zm4.028-3.934s-.717-.063-1.143-.063c-.426 0-1.143.064-1.143.064v-.805c0-.353.512-.638 1.143-.638s1.143.285 1.143.638V6.337z"/>
    </g>
</svg>
