<svg xmlns="http://www.w3.org/2000/svg" viewBox="1 1 14 14">
    <g fill-rule="evenodd" fill="currentColor">
        <path d="M8.054 6.257H15v1.64H8.26l.032.258A1.231 1.231 0 0 1 7.07 9.538H4.007a1.231 1.231 0 0 1-1.22-1.383l.032-.258H1.82v5.77H1v-7.41h2.024l.378-3.024a1.232 1.232 0 0 1 1.22-1.078h1.834c.619 0 1.144.463 1.22 1.078l.378 3.024zM4.72 11.178c-.534 0-.985-.344-1.155-.82h3.95c-.17.476-.62.82-1.155.82h-.41v1.668h.82v.82H4.31v-.82h.82v-1.668h-.41zm4.511-2.46H15v1.64H9.23v-1.64zm0 2.46H15v2.489H9.23v-2.489z"/>
    </g>
</svg>
